<svg width="23" height="19" viewBox="0 0 23 19" fill="none" xmlns="http://www.w3.org/2000/svg">
<path d="M18.8 19H11.6C11.4409 19 11.2883 18.9368 11.1757 18.8243C11.0632 18.7117 11 18.5591 11 18.4V9.4C11 8.76348 11.2529 8.15303 11.7029 7.70294C12.153 7.25286 12.7635 7 13.4 7H17C17.6365 7 18.247 7.25286 18.6971 7.70294C19.1471 8.15303 19.4 8.76348 19.4 9.4V15.142C19.4 15.3011 19.3368 15.4537 19.2243 15.5663C19.1117 15.6788 18.9591 15.742 18.8 15.742C18.6409 15.742 18.4883 15.6788 18.3757 15.5663C18.2632 15.4537 18.2 15.3011 18.2 15.142V9.4C18.2 9.08174 18.0736 8.77652 17.8485 8.55147C17.6235 8.32643 17.3183 8.2 17 8.2H13.4C13.0817 8.2 12.7765 8.32643 12.5515 8.55147C12.3264 8.77652 12.2 9.08174 12.2 9.4V17.8H18.2V17.542C18.2 17.3829 18.2632 17.2303 18.3757 17.1177C18.4883 17.0052 18.6409 16.942 18.8 16.942C18.9591 16.942 19.1117 17.0052 19.2243 17.1177C19.3368 17.2303 19.4 17.3829 19.4 17.542V18.4C19.4 18.5591 19.3368 18.7117 19.2243 18.8243C19.1117 18.9368 18.9591 19 18.8 19Z" fill="white"/>
<path d="M15.2 17.2C14.7226 17.2 14.2647 17.0103 13.9272 16.6728C13.5896 16.3352 13.4 15.8774 13.4 15.4C13.4 13.99 14.636 12.718 14.774 12.574C14.8297 12.5177 14.8961 12.4731 14.9692 12.4426C15.0423 12.4122 15.1208 12.3965 15.2 12.3965C15.2792 12.3965 15.3576 12.4122 15.4307 12.4426C15.5038 12.4731 15.5702 12.5177 15.626 12.574C15.764 12.718 17 13.99 17 15.4C17 15.8774 16.8103 16.3352 16.4728 16.6728C16.1352 17.0103 15.6774 17.2 15.2 17.2ZM15.2 13.936C14.8626 14.3557 14.6542 14.8642 14.6 15.4C14.6 15.5591 14.6632 15.7117 14.7757 15.8242C14.8882 15.9367 15.0408 16 15.2 16C15.3591 16 15.5117 15.9367 15.6242 15.8242C15.7367 15.7117 15.8 15.5591 15.8 15.4C15.7458 14.8642 15.5373 14.3557 15.2 13.936Z" fill="white"/>
<path d="M20 16H18.8C18.6408 16 18.4882 15.9367 18.3757 15.8242C18.2632 15.7117 18.2 15.5591 18.2 15.4C18.2 15.2408 18.2632 15.0882 18.3757 14.9757C18.4882 14.8632 18.6408 14.8 18.8 14.8H20C20.1591 14.8 20.3117 14.7367 20.4242 14.6242C20.5367 14.5117 20.6 14.3591 20.6 14.2V9.99995C20.6 9.52256 20.7896 9.06472 21.1272 8.72716C21.4647 8.38959 21.9226 8.19995 22.4 8.19995C22.5591 8.19995 22.7117 8.26317 22.8242 8.37569C22.9367 8.48821 23 8.64082 23 8.79995C23 8.95908 22.9367 9.11169 22.8242 9.22422C22.7117 9.33674 22.5591 9.39995 22.4 9.39995C22.2408 9.39995 22.0882 9.46317 21.9757 9.57569C21.8632 9.68821 21.8 9.84082 21.8 9.99995V14.2C21.8 14.6773 21.6103 15.1352 21.2727 15.4727C20.9352 15.8103 20.4773 16 20 16Z" fill="white"/>
<path d="M22.4 10.6H21.2C20.8687 10.6 20.6 10.8686 20.6 11.2V12.4C20.6 12.7313 20.8687 13 21.2 13H22.4C22.7314 13 23 12.7313 23 12.4V11.2C23 10.8686 22.7314 10.6 22.4 10.6Z" fill="white"/>
<path d="M16.4 11.2H14C13.8408 11.2 13.6882 11.1368 13.5757 11.0243C13.4632 10.9117 13.4 10.7591 13.4 10.6C13.4 10.4409 13.4632 10.2883 13.5757 10.1757C13.6882 10.0632 13.8408 10 14 10H16.4C16.5591 10 16.7117 10.0632 16.8242 10.1757C16.9367 10.2883 17 10.4409 17 10.6C17 10.7591 16.9367 10.9117 16.8242 11.0243C16.7117 11.1368 16.5591 11.2 16.4 11.2Z" fill="white"/>
<path d="M7.08781 6.76949L10.0702 7.29966L4.8292 12.5346L6.5104 8.50562L6.73934 7.95698L6.15957 7.82546L3.07496 7.12574L8.45529 2.02972L6.71589 6.0799L6.46713 6.65915L7.08781 6.76949Z" stroke="white"/>
</svg>
