<svg width="36" height="36" viewBox="0 0 36 36" fill="none" xmlns="http://www.w3.org/2000/svg">
<circle cx="17.7511" cy="17.7511" r="17.7511" fill="url(#paint0_linear_22_626)"/>
<path d="M26.4565 14.169L25.0227 18.8253C25.0136 18.8526 25.0182 18.8799 25.0364 18.9072C25.0546 18.9254 25.0773 18.9345 25.1046 18.9345H27.8356C27.8629 18.9345 27.8857 18.9254 27.9039 18.9072C27.9221 18.8799 27.9266 18.8526 27.9175 18.8253L26.4838 14.169C26.4838 14.1599 26.4792 14.1554 26.4701 14.1554C26.461 14.1554 26.4565 14.1599 26.4565 14.169ZM23.0428 22.7579C22.8516 22.7579 22.6969 22.6805 22.5785 22.5257C22.4693 22.371 22.4465 22.2026 22.5103 22.0205L25.4324 13.5273C25.5052 13.3088 25.6372 13.1313 25.8283 12.9947C26.0195 12.8582 26.2289 12.7899 26.4565 12.7899H26.5384C26.7751 12.7899 26.9844 12.8582 27.1665 12.9947C27.3577 13.1313 27.4897 13.3088 27.5625 13.5273L30.4846 22.0205C30.5483 22.2026 30.521 22.371 30.4027 22.5257C30.2934 22.6805 30.1432 22.7579 29.9521 22.7579H29.8974C29.6699 22.7579 29.4605 22.6896 29.2693 22.553C29.0873 22.4165 28.9598 22.239 28.887 22.0205L28.3408 20.2181C28.3317 20.1453 28.2816 20.1088 28.1906 20.1088H24.7496C24.6677 20.1088 24.6176 20.1453 24.5994 20.2181L24.0532 22.0205C23.9895 22.239 23.8621 22.4165 23.6709 22.553C23.4888 22.6896 23.2795 22.7579 23.0428 22.7579Z" fill="white"/>
<path d="M18.6614 13.6548V17.7512H7.73767" stroke="white" stroke-width="1.5" stroke-linecap="round" stroke-linejoin="round"/>
<path d="M13.1996 13.6548V17.7512V21.8476" stroke="white" stroke-width="1.5" stroke-linecap="round" stroke-linejoin="round"/>
<path d="M7.73767 13.6548V17.7512V21.8476" stroke="white" stroke-width="1.5" stroke-linecap="round" stroke-linejoin="round"/>
<path d="M20.0269 12.2893C20.0269 13.0434 19.4155 13.6548 18.6614 13.6548C17.9073 13.6548 17.296 13.0434 17.296 12.2893C17.296 11.5352 17.9073 10.9238 18.6614 10.9238C19.4155 10.9238 20.0269 11.5352 20.0269 12.2893Z" stroke="white" stroke-width="1.5" stroke-linecap="round" stroke-linejoin="round"/>
<path d="M14.565 12.2893C14.565 13.0434 13.9537 13.6548 13.1995 13.6548C12.4454 13.6548 11.8341 13.0434 11.8341 12.2893C11.8341 11.5352 12.4454 10.9238 13.1995 10.9238C13.9537 10.9238 14.565 11.5352 14.565 12.2893Z" stroke="white" stroke-width="1.5" stroke-linecap="round" stroke-linejoin="round"/>
<path d="M9.10313 12.2893C9.10313 13.0434 8.49178 13.6548 7.73766 13.6548C6.98353 13.6548 6.37219 13.0434 6.37219 12.2893C6.37219 11.5352 6.98353 10.9238 7.73766 10.9238C8.49178 10.9238 9.10313 11.5352 9.10313 12.2893Z" stroke="white" stroke-width="1.5" stroke-linecap="round" stroke-linejoin="round"/>
<path d="M14.565 23.213C14.565 23.9671 13.9537 24.5785 13.1995 24.5785C12.4454 24.5785 11.8341 23.9671 11.8341 23.213C11.8341 22.4589 12.4454 21.8475 13.1995 21.8475C13.9537 21.8475 14.565 22.4589 14.565 23.213Z" stroke="white" stroke-width="1.5" stroke-linecap="round" stroke-linejoin="round"/>
<path d="M9.10313 23.213C9.10313 23.9671 8.49178 24.5785 7.73766 24.5785C6.98353 24.5785 6.37219 23.9671 6.37219 23.213C6.37219 22.4589 6.98353 21.8475 7.73766 21.8475C8.49178 21.8475 9.10313 22.4589 9.10313 23.213Z" stroke="white" stroke-width="1.5" stroke-linecap="round" stroke-linejoin="round"/>
<path d="M18.6614 24.5785C19.4156 24.5785 20.0269 23.9671 20.0269 23.213C20.0269 22.4589 19.4156 21.8475 18.6614 21.8475C17.9073 21.8475 17.296 22.4589 17.296 23.213C17.296 23.9671 17.9073 24.5785 18.6614 24.5785Z" stroke="white" stroke-width="1.5" stroke-linecap="round" stroke-linejoin="round"/>
<defs>
<linearGradient id="paint0_linear_22_626" x1="2.32727" y1="1.49708" x2="18.4617" y2="40.3858" gradientUnits="userSpaceOnUse">
<stop stop-color="#00A1B4"/>
<stop offset="1" stop-color="#009FE3"/>
</linearGradient>
</defs>
</svg>
