<svg width="36" height="36" viewBox="0 0 36 36" fill="none" xmlns="http://www.w3.org/2000/svg">
<circle cx="17.7511" cy="17.7511" r="17.7511" fill="url(#paint0_linear_22_540)"/>
<path d="M18.4709 17.6015L18.0971 16.106L19.5926 15.7321C19.9665 15.6574 20.2656 15.2087 20.116 14.8348C20.0412 14.4609 19.5926 14.1618 19.2187 14.3114L17.3493 14.8348L15.2556 13.6384L17.3493 12.442L19.2187 12.9654C19.2935 12.9654 19.3682 12.9654 19.443 12.9654C19.7421 12.9654 20.0412 12.7411 20.1908 12.442C20.2656 12.0681 20.0412 11.6195 19.6674 11.5447L18.1718 11.1708L18.5457 9.6753C18.6205 9.30142 18.3962 8.85276 18.0223 8.77799C17.6484 8.70321 17.1997 8.92754 17.125 9.30142L16.6015 11.1708L14.5078 12.3672V9.9744L15.9286 8.55366C16.2277 8.25456 16.2277 7.8059 15.9286 7.5068C15.6295 7.20769 15.1808 7.20769 14.8817 7.5068L13.8348 8.55366L12.6384 7.5068C12.3393 7.20769 11.8907 7.20769 11.5916 7.5068C11.2925 7.8059 11.2925 8.25456 11.5916 8.55366L13.0123 9.9744V12.3672L10.8438 11.1708L10.3204 9.22664C10.2456 8.85276 9.87172 8.62843 9.42307 8.70321C9.04919 8.85276 8.82486 9.22664 8.89964 9.6753L9.27352 11.1708L7.778 11.5447C7.40412 11.6195 7.17979 11.9933 7.32935 12.442C7.40412 12.7411 7.70322 12.9654 8.0771 12.9654C8.15188 12.9654 8.22665 12.9654 8.30143 12.9654L10.1708 12.442L12.2645 13.6384L10.1708 14.8348L8.30143 14.3114C7.92755 14.2366 7.4789 14.4609 7.40412 14.8348C7.32935 15.2087 7.55367 15.6574 7.92755 15.7321L9.42307 16.106L9.04919 17.6015C8.97441 17.9754 9.19874 18.4241 9.57262 18.4988C9.64739 18.4988 9.72217 18.4988 9.79695 18.4988C10.096 18.4988 10.3952 18.2745 10.5447 17.9754L11.0681 16.106L13.1619 14.9096V17.3024L11.7411 18.7232C11.442 19.0223 11.442 19.4709 11.7411 19.77C12.0402 20.0691 12.4889 20.0691 12.788 19.77L13.8348 18.7232L14.8817 19.77C15.0313 19.9196 15.2556 19.9944 15.4051 19.9944C15.5547 19.9944 15.779 19.9196 15.9286 19.77C16.2277 19.4709 16.2277 19.0223 15.9286 18.7232L14.5078 17.3024V14.9096L16.6015 16.106L17.125 17.9754C17.1997 18.2745 17.4989 18.4988 17.8727 18.4988C17.9475 18.4988 18.0223 18.4988 18.0971 18.4988C18.3214 18.4241 18.5457 18.0502 18.4709 17.6015Z" fill="white"/>
<path d="M27.2946 23.434L25.8738 23.8079L24.5279 22.9853L25.8738 22.1628L27.2946 22.5367C27.3694 22.5367 27.4441 22.5367 27.5189 22.5367C27.818 22.5367 28.1171 22.3124 28.2667 22.0133C28.3414 21.6394 28.1171 21.1907 27.7432 21.1159L26.6964 20.8168L26.9955 19.77C27.0702 19.3961 26.8459 18.9474 26.472 18.8727C26.0982 18.7979 25.6495 19.0222 25.5747 19.3961L25.2009 20.8168L23.7801 21.7141V20.1439L24.827 19.097C25.1261 18.7979 25.1261 18.3492 24.827 18.0501C24.5279 17.751 24.0792 17.751 23.7801 18.0501L23.0324 18.7979L22.2846 18.0501C21.9855 17.751 21.5368 17.751 21.2377 18.0501C20.9386 18.3492 20.9386 18.7979 21.2377 19.097L22.2846 20.1439V21.7141L20.9386 20.8916L20.5648 19.4709C20.49 19.097 20.0413 18.7979 19.6674 18.9474C19.2936 19.0222 18.9945 19.4709 19.144 19.8448L19.4431 20.8916L18.3963 21.1907C18.0224 21.2655 17.7233 21.7141 17.8728 22.088C17.9476 22.3871 18.2467 22.6115 18.6206 22.6115C18.6954 22.6115 18.7701 22.6115 18.8449 22.6115L20.2656 22.2376L21.5368 22.9853L20.1909 23.8079L18.7701 23.434C18.3963 23.3592 17.9476 23.5835 17.8728 23.9574C17.798 24.3313 18.0224 24.78 18.3963 24.8547L19.4431 25.1538L19.144 26.2007C19.0692 26.5746 19.2936 27.0232 19.6674 27.098C19.7422 27.098 19.817 27.098 19.8918 27.098C20.1909 27.098 20.49 26.8737 20.6395 26.5746L21.0134 25.1538L22.3594 24.3313V25.9016L21.3125 26.9485C21.0134 27.2476 21.0134 27.6962 21.3125 27.9953C21.6116 28.2944 22.0603 28.2944 22.3594 27.9953L23.1071 27.2476L23.8549 27.9953C24.0044 28.1449 24.2288 28.2196 24.3783 28.2196C24.5279 28.2196 24.7522 28.1449 24.9017 27.9953C25.2009 27.6962 25.2009 27.2476 24.9017 26.9485L23.7801 25.9016V24.3313L25.1261 25.1538L25.5 26.5746C25.5747 26.8737 25.8738 27.098 26.2477 27.098C26.3225 27.098 26.3973 27.098 26.472 27.098C26.8459 27.0232 27.145 26.5746 26.9955 26.2007L26.6964 25.1538L27.7432 24.8547C28.1171 24.78 28.4162 24.3313 28.2667 23.9574C28.1171 23.5835 27.7432 23.2844 27.2946 23.434Z" fill="white"/>
<defs>
<linearGradient id="paint0_linear_22_540" x1="2.32727" y1="1.49708" x2="18.4617" y2="40.3858" gradientUnits="userSpaceOnUse">
<stop stop-color="#00A1B4"/>
<stop offset="1" stop-color="#009FE3"/>
</linearGradient>
</defs>
</svg>
