<svg width="36" height="36" viewBox="0 0 36 36" fill="none" xmlns="http://www.w3.org/2000/svg">
<circle cx="17.7511" cy="17.7511" r="17.7511" fill="url(#paint0_linear_22_545)"/>
<path d="M25.2107 8.34877C25.1356 8.28456 25.0469 8.23832 24.9513 8.21358C24.8557 8.18883 24.7557 8.18623 24.6589 8.20597L13.6242 10.8024C13.479 10.8366 13.35 10.9199 13.259 11.0381C13.168 11.1563 13.1204 11.3023 13.1244 11.4515V20.0585C12.4865 19.5279 11.6824 19.2384 10.8526 19.2407C10.1465 19.2407 9.45626 19.4501 8.86917 19.8423C8.28208 20.2346 7.8245 20.7922 7.55429 21.4445C7.28408 22.0969 7.21338 22.8147 7.35113 23.5072C7.48888 24.1997 7.8289 24.8359 8.32818 25.3351C8.82746 25.8344 9.46358 26.1744 10.1561 26.3122C10.8486 26.4499 11.5664 26.3792 12.2188 26.109C12.8711 25.8388 13.4287 25.3812 13.821 24.7941C14.2133 24.207 14.4226 23.5168 14.4226 22.8107V15.8589L24.1591 13.5675V20.0585C23.5212 19.5279 22.7171 19.2384 21.8873 19.2407C21.1812 19.2407 20.491 19.4501 19.9039 19.8423C19.3168 20.2346 18.8592 20.7922 18.589 21.4445C18.3188 22.0969 18.2481 22.8147 18.3858 23.5072C18.5236 24.1997 18.8636 24.8359 19.3629 25.3351C19.8622 25.8344 20.4983 26.1744 21.1908 26.3122C21.8833 26.4499 22.6011 26.3792 23.2535 26.109C23.9058 25.8388 24.4634 25.3812 24.8557 24.7941C25.248 24.207 25.4573 23.5168 25.4573 22.8107V8.85507C25.4569 8.75757 25.4345 8.66143 25.3918 8.57378C25.3491 8.48612 25.2872 8.40922 25.2107 8.34877ZM10.8526 25.0826C10.4033 25.0826 9.96402 24.9493 9.59041 24.6997C9.21681 24.4501 8.92562 24.0953 8.75367 23.6801C8.58172 23.265 8.53673 22.8082 8.62439 22.3675C8.71205 21.9268 8.92842 21.522 9.24614 21.2043C9.56387 20.8866 9.96867 20.6702 10.4094 20.5825C10.8501 20.4949 11.3069 20.5399 11.722 20.7118C12.1371 20.8838 12.4919 21.1749 12.7416 21.5486C12.9912 21.9222 13.1244 22.3614 13.1244 22.8107C13.1244 23.4133 12.8851 23.9911 12.459 24.4172C12.033 24.8432 11.4551 25.0826 10.8526 25.0826ZM14.4226 14.5282V11.9643L24.1591 9.67294V12.2693L14.4226 14.5282ZM21.8873 25.0826C21.438 25.0826 20.9987 24.9493 20.6251 24.6997C20.2515 24.4501 19.9603 24.0953 19.7884 23.6801C19.6164 23.265 19.5714 22.8082 19.6591 22.3675C19.7468 21.9268 19.9631 21.522 20.2808 21.2043C20.5986 20.8866 21.0034 20.6702 21.4441 20.5825C21.8848 20.4949 22.3416 20.5399 22.7567 20.7118C23.1718 20.8838 23.5266 21.1749 23.7763 21.5486C24.0259 21.9222 24.1591 22.3614 24.1591 22.8107C24.1591 23.4133 23.9198 23.9911 23.4937 24.4172C23.0677 24.8432 22.4898 25.0826 21.8873 25.0826Z" fill="white"/>
<defs>
<linearGradient id="paint0_linear_22_545" x1="2.32727" y1="1.49708" x2="18.4617" y2="40.3858" gradientUnits="userSpaceOnUse">
<stop stop-color="#00A1B4"/>
<stop offset="1" stop-color="#009FE3"/>
</linearGradient>
</defs>
</svg>
