<svg width="36" height="36" viewBox="0 0 36 36" fill="none" xmlns="http://www.w3.org/2000/svg">
<circle cx="17.7511" cy="17.7511" r="17.7511" fill="url(#paint0_linear_22_525)"/>
<path d="M7.21069 17.6387V22.9366H22.3982V17.6387H7.21069ZM20.9854 21.5238H8.62348V19.0515H20.9854V21.5238Z" fill="white"/>
<path d="M24.8706 17.6387H23.4578V22.9366H24.8706V17.6387Z" fill="white"/>
<path d="M27.3429 17.6387H25.9301V22.9366H27.3429V17.6387Z" fill="white"/>
<path d="M23.5209 14.6938C23.3515 14.4383 23.2699 14.1346 23.2884 13.8286C23.3069 13.5226 23.4244 13.231 23.6233 12.9977C24.0344 12.5195 24.273 11.9172 24.3009 11.2872C24.3287 10.6572 24.1442 10.0361 23.7769 9.52354L23.5186 9.16187H21.9037L21.8234 9.21926L22.6272 10.3446C22.8105 10.6004 22.9026 10.9103 22.8887 11.2247C22.8748 11.539 22.7557 11.8396 22.5506 12.0782C22.1521 12.5457 21.9165 13.1302 21.8795 13.7435C21.8424 14.3567 22.006 14.9653 22.3453 15.4774L22.6088 15.8726H24.3068L23.5209 14.6938Z" fill="white"/>
<path d="M26.6996 14.6938C26.5303 14.4383 26.4487 14.1346 26.4671 13.8286C26.4856 13.5226 26.6032 13.231 26.8021 12.9977C27.2132 12.5195 27.4518 11.9172 27.4797 11.2872C27.5075 10.6572 27.323 10.0361 26.9557 9.52354L26.6974 9.16187H25.0825L25.0022 9.21926L25.806 10.3446C25.9893 10.6004 26.0814 10.9103 26.0675 11.2247C26.0536 11.539 25.9345 11.8396 25.7294 12.0782C25.3308 12.5457 25.0953 13.1302 25.0582 13.7435C25.0212 14.3567 25.1847 14.9653 25.5241 15.4774L25.7876 15.8726H27.4856L26.6996 14.6938Z" fill="white"/>
<defs>
<linearGradient id="paint0_linear_22_525" x1="2.32727" y1="1.49708" x2="18.4617" y2="40.3858" gradientUnits="userSpaceOnUse">
<stop stop-color="#00A1B4"/>
<stop offset="1" stop-color="#009FE3"/>
</linearGradient>
</defs>
</svg>
