<svg width="60" height="72" viewBox="0 0 60 72" fill="none" xmlns="http://www.w3.org/2000/svg">
<path d="M28.678 67.7432C29.0975 67.9148 29.5468 68.0021 30 68C30.4553 67.9981 30.9058 67.9061 31.3254 67.7293C31.7451 67.5525 32.1255 67.2943 32.4449 66.9696L48.8845 50.5539C51.4801 47.9716 53.5348 44.8973 54.9282 41.5109C56.3215 38.1245 57.0256 34.4941 56.9993 30.8321C57.0105 27.2866 56.3144 23.7745 54.952 20.5015C53.5895 17.2284 51.5879 14.2602 49.0645 11.7705C43.968 6.78899 37.1254 4 30 4C22.8746 4 16.032 6.78899 10.9355 11.7705C8.41208 14.2602 6.41052 17.2284 5.04804 20.5015C3.68556 23.7745 2.98953 27.2866 3.00071 30.8321C2.97435 34.4941 3.67847 38.1245 5.07184 41.5109C6.46522 44.8973 8.51986 47.9716 11.1155 50.5539L27.5551 66.9996C27.8769 67.3189 28.2585 67.5715 28.678 67.7432Z" fill="url(#paint0_linear_206_1236)"/>
<path d="M29.7625 71.3871C29.2628 71.3894 28.7677 71.2933 28.3052 71.1041C27.8428 70.915 27.4222 70.6366 27.0674 70.2848L8.94582 52.1633C6.08462 49.3178 3.81976 45.9302 2.28382 42.1988C0.747885 38.4673 -0.0282708 34.4669 0.000786711 30.4318C-0.0115373 26.525 0.755703 22.655 2.25758 19.0484C3.75947 15.4418 5.9658 12.1711 8.74741 9.42773C14.3653 3.93855 21.908 0.865356 29.7625 0.865356C37.6169 0.865356 45.1596 3.93855 50.7775 9.42773C53.5591 12.1711 55.7655 15.4418 57.2673 19.0484C58.7692 22.655 59.5365 26.525 59.5241 30.4318C59.5532 34.4669 58.777 38.4673 57.2411 42.1988C55.7052 45.9302 53.4403 49.3178 50.5791 52.1633L32.4575 70.2518C32.1055 70.6095 31.6861 70.894 31.2235 71.0889C30.7609 71.2837 30.2644 71.3851 29.7625 71.3871ZM29.7625 4.14779C22.7689 4.13168 16.0513 6.87459 11.0677 11.7811C8.59881 14.2186 6.64085 17.1241 5.30839 20.3275C3.97593 23.5309 3.29575 26.9678 3.30764 30.4373C3.28118 34.0362 3.97288 37.6043 5.34225 40.9326C6.71163 44.2609 8.73117 47.2827 11.2827 49.8209L29.3987 67.9094C29.4455 67.9579 29.5016 67.9965 29.5636 68.0229C29.6256 68.0492 29.6923 68.0628 29.7597 68.0628C29.8271 68.0628 29.8938 68.0492 29.9558 68.0229C30.0178 67.9965 30.0739 67.9579 30.1207 67.9094L48.2423 49.8209C50.7938 47.2827 52.8133 44.2609 54.1827 40.9326C55.552 37.6043 56.2438 34.0362 56.2173 30.4373C56.2292 26.9678 55.549 23.5309 54.2165 20.3275C52.8841 17.1241 50.9261 14.2186 48.4572 11.7811C43.4736 6.87459 36.756 4.13168 29.7625 4.14779Z" fill="white"/>
<path d="M29.7624 45.7094C26.2887 45.7078 22.923 44.5021 20.2384 42.2976C17.5538 40.0932 15.7164 37.0263 15.0391 33.6192C14.3618 30.2122 14.8864 26.6757 16.5237 23.612C18.161 20.5484 20.8096 18.147 24.0186 16.8169C27.2275 15.4867 30.7984 15.3101 34.1229 16.317C37.4475 17.3239 40.3202 19.4522 42.2519 22.3393C44.1835 25.2264 45.0547 28.6938 44.7169 32.1511C44.3791 35.6084 42.8534 38.8416 40.3995 41.3003C39.004 42.6993 37.346 43.809 35.5207 44.5656C33.6953 45.3222 31.7384 45.711 29.7624 45.7094ZM29.7624 18.9845C27.0522 18.9889 24.4272 19.9326 22.3346 21.655C20.242 23.3774 18.8112 25.772 18.286 28.4309C17.7607 31.0898 18.1734 33.8486 19.4538 36.2373C20.7342 38.6261 22.8031 40.4971 25.3081 41.5318C27.8132 42.5664 30.5994 42.7006 33.1923 41.9115C35.7852 41.1225 38.0244 39.459 39.5285 37.2044C41.0325 34.9497 41.7085 32.2434 41.4412 29.5463C41.174 26.8493 39.98 24.3282 38.0626 22.4127V22.4127C36.9727 21.3233 35.6785 20.4597 34.2542 19.8714C32.8299 19.2832 31.3035 18.9818 29.7624 18.9845Z" fill="white"/>
<defs>
<linearGradient id="paint0_linear_206_1236" x1="6.53985" y1="6.69879" x2="39.0781" y2="72.8712" gradientUnits="userSpaceOnUse">
<stop stop-color="#00A1B4"/>
<stop offset="1" stop-color="#009FE3"/>
</linearGradient>
</defs>
</svg>
