<svg width="99" height="67" viewBox="0 0 99 67" fill="none" xmlns="http://www.w3.org/2000/svg">
<path d="M54.2788 57.7601H23.2001C22.4497 57.7601 21.8407 57.0694 21.8407 56.2183C21.8407 55.3672 22.4497 54.6765 23.2001 54.6765H54.2788C55.0292 54.6765 55.6382 55.3672 55.6382 56.2183C55.6382 57.0694 55.0292 57.7601 54.2788 57.7601Z" fill="white"/>
<path d="M15.8077 66.1474C10.9791 66.1474 7.05042 61.6947 7.05042 56.2152C7.05042 50.7357 10.9764 46.2831 15.8077 46.2831C20.6336 46.2831 24.5623 50.7357 24.5623 56.2152C24.5623 61.6947 20.6336 66.1474 15.8077 66.1474ZM15.8077 49.3697C12.4772 49.3697 9.76923 52.4409 9.76923 56.2183C9.76923 59.9957 12.4772 63.0669 15.8077 63.0669C19.1355 63.0669 21.8435 59.9957 21.8435 56.2183C21.8435 52.4409 19.1328 49.3697 15.8077 49.3697Z" fill="white"/>
<path d="M61.677 66.1473C56.8484 66.1473 52.9197 61.6946 52.9197 56.2152C52.9197 50.7357 56.8456 46.283 61.677 46.283C66.5083 46.283 70.4343 50.7357 70.4343 56.2152C70.4343 61.6946 66.5056 66.1473 61.677 66.1473ZM61.677 49.3697C58.3464 49.3697 55.6385 52.4409 55.6385 56.2182C55.6385 59.9956 58.3464 63.0668 61.677 63.0668C65.0075 63.0668 67.7154 59.9956 67.7154 56.2182C67.7154 52.4409 65.0048 49.3697 61.677 49.3697Z" fill="white"/>
<path d="M50.0746 57.2693H27.136C26.5822 57.2693 26.1328 56.6658 26.1328 55.9221C26.1328 55.1784 26.5822 54.5749 27.136 54.5749H50.0746C50.6283 54.5749 51.0777 55.1784 51.0777 55.9221C51.0777 56.6658 50.6283 57.2693 50.0746 57.2693Z" fill="white"/>
<path d="M69.6311 57.7371H68.8546C68.2824 57.7371 67.8181 57.0466 67.8181 56.1958C67.8181 55.3451 68.2824 54.6546 68.8546 54.6546H69.6311C70.9143 54.6546 71.9957 53.2922 72.1926 51.4057L70.6773 41.1027C70.6773 40.1357 70.3178 38.9412 70.0131 38.3463C69.7104 37.7545 69.273 37.3784 68.7734 37.2859L54.9645 34.783C54.7655 34.746 54.5768 34.6258 54.4234 34.4347L41.9413 18.8345C41.1183 17.805 40.0714 17.2378 38.9934 17.2378H19.4669C18.5029 17.2378 17.6177 17.9591 17.0974 19.1674L11.2616 32.7455C11.131 33.0569 10.9258 33.285 10.6894 33.3898L3.64092 36.5492C2.594 37.0178 1.93476 38.5806 2.10268 40.1896L3.08947 49.5879C3.36934 52.248 4.88684 54.1807 6.69873 54.1807H7.87236C8.44453 54.1807 8.9089 54.8712 8.9089 55.7219C8.9089 56.5727 8.44453 57.2631 7.87236 57.2631H6.69458C3.85444 57.2631 1.47246 54.2362 1.03711 50.0626L0.0503188 40.6643C-0.275157 37.5449 1.00809 34.5087 3.03765 33.5994L9.7213 30.6032L15.3518 17.5029C16.2536 15.41 17.7919 14.1585 19.4669 14.1585H38.9975C40.5606 14.1585 42.0802 14.9815 43.2764 16.4765L55.5221 31.7807L69.0263 34.2282C70.0877 34.4224 71.0247 35.2207 71.6674 36.4876C72.3121 37.7514 72.4591 39.0819 73.053 41.7764L74.2408 51.8804C73.8863 55.2773 71.9426 57.7371 69.6311 57.7371Z" fill="white"/>
<path d="M91.8062 58.3328H92.8415C95.9235 58.3328 98.5152 55.0434 98.9878 50.501L97.404 36.9894C96.6121 33.3863 96.4162 31.6071 95.5566 29.9171C94.6997 28.223 93.4503 27.1554 92.0351 26.8957L74.0296 23.6229L57.7019 3.15738C56.107 1.15824 54.0809 0.0576782 51.9967 0.0576782H25.9559C23.7225 0.0576782 21.6715 1.73119 20.4691 4.52999L13.5709 22.4098C13.3818 26.136 12.6327 24.1589 13.5709 25.2038C13.886 25.0636 13.7959 26.8175 13.9701 26.4012L22.7965 6.75584C23.4903 5.14004 24.6706 4.1755 25.9559 4.1755H51.9912C53.4286 4.1755 54.8244 4.93394 55.9218 6.31067L72.5646 27.1719C72.7691 27.4274 73.0207 27.5882 73.286 27.6376L91.6978 30.9847C92.364 31.1083 92.9472 31.6112 93.3508 32.4026C93.7571 33.1981 94.2364 34.7954 94.2364 36.0887L96.2569 49.8663C95.9943 52.3889 94.5525 54.2108 92.8415 54.2108H91.8062C91.0433 54.2108 90.4241 55.1341 90.4241 56.2718C90.4241 57.4094 91.0433 58.3328 91.8062 58.3328Z" fill="white"/>
<path d="M44.0904 37.0611H20.0536C19.4751 37.0611 19.0056 36.1558 19.0056 35.0403C19.0056 33.9248 19.4751 33.0195 20.0536 33.0195H44.0904C44.6689 33.0195 45.1384 33.9248 45.1384 35.0403C45.1384 36.1558 44.6689 37.0611 44.0904 37.0611Z" fill="white"/>
</svg>
