<svg width="36" height="36" viewBox="0 0 36 36" fill="none" xmlns="http://www.w3.org/2000/svg">
<circle cx="17.7511" cy="17.7511" r="17.7511" fill="url(#paint0_linear_24_103)"/>
<path d="M10.2437 8.59619L9.05047 9.78941L15.7611 16.5H18.1476L10.2437 8.59619Z" fill="white"/>
<path d="M24 22.3525H21.6135L25.2106 25.9495L26.4038 24.7563L24 22.3525Z" fill="white"/>
<path d="M26.4494 8.55069C24.0759 6.17718 20.8567 4.84375 17.5 4.84375C14.1434 4.84375 10.9242 6.17718 8.55069 8.55069C6.17718 10.9242 4.84375 14.1434 4.84375 17.5C4.84375 20.8567 6.17718 24.0759 8.55069 26.4494C10.9242 28.8229 14.1434 30.1563 17.5 30.1563C20.8567 30.1563 24.0759 28.8229 26.4494 26.4494C28.8229 24.0759 30.1563 20.8567 30.1563 17.5C30.1563 14.1434 28.8229 10.9242 26.4494 8.55069ZM17.5 28.4688C11.4519 28.4688 6.53128 23.5482 6.53128 17.5C6.53128 11.4519 11.4519 6.53128 17.5 6.53128C23.5482 6.53128 28.4688 11.4519 28.4688 17.5C28.4688 23.5482 23.5482 28.4688 17.5 28.4688Z" fill="white"/>
<path d="M9.69629 17.2489V21.2479H21.16V17.2489H9.69629ZM20.0936 20.1815H10.7627V18.3153H20.0936V20.1815Z" fill="white"/>
<path d="M23.0261 17.2489H21.9597V21.2479H23.0261V17.2489Z" fill="white"/>
<path d="M24.8922 17.2489H23.8258V21.2479H24.8922V17.2489Z" fill="white"/>
<path d="M22.0073 15.0262C21.8795 14.8333 21.8179 14.6041 21.8319 14.3731C21.8458 14.1421 21.9345 13.922 22.0847 13.7459C22.395 13.385 22.5751 12.9303 22.5961 12.4548C22.6171 11.9793 22.4778 11.5105 22.2006 11.1236L22.0056 10.8506H20.7867L20.7261 10.8939L21.3328 11.7434C21.4712 11.9364 21.5407 12.1703 21.5302 12.4076C21.5197 12.6449 21.4298 12.8718 21.275 13.0518C20.9741 13.4047 20.7963 13.8459 20.7684 14.3088C20.7404 14.7717 20.8639 15.2311 21.12 15.6176L21.3189 15.9159H22.6006L22.0073 15.0262Z" fill="white"/>
<path d="M24.4067 15.0262C24.2788 14.8333 24.2172 14.6041 24.2312 14.3731C24.2451 14.1421 24.3339 13.922 24.484 13.7459C24.7943 13.385 24.9744 12.9303 24.9954 12.4548C25.0165 11.9793 24.8772 11.5105 24.5999 11.1236L24.405 10.8506H23.186L23.1254 10.8939L23.7321 11.7434C23.8705 11.9364 23.94 12.1703 23.9295 12.4076C23.919 12.6449 23.8291 12.8718 23.6743 13.0518C23.3735 13.4047 23.1957 13.8459 23.1677 14.3088C23.1398 14.7717 23.2632 15.2311 23.5194 15.6176L23.7182 15.9159H24.9999L24.4067 15.0262Z" fill="white"/>
<defs>
<linearGradient id="paint0_linear_24_103" x1="2.32727" y1="1.49708" x2="18.4617" y2="40.3858" gradientUnits="userSpaceOnUse">
<stop stop-color="#00A1B4"/>
<stop offset="1" stop-color="#009FE3"/>
</linearGradient>
</defs>
</svg>
