<svg width="36" height="36" viewBox="0 0 36 36" fill="none" xmlns="http://www.w3.org/2000/svg">
<circle cx="17.7511" cy="17.7511" r="17.7511" fill="url(#paint0_linear_24_111)"/>
<path d="M18.2892 13.6548V17.7512H7.36548" stroke="white" stroke-width="1.5" stroke-linecap="round" stroke-linejoin="round"/>
<path d="M12.8274 13.6548V17.7512V21.8476" stroke="white" stroke-width="1.5" stroke-linecap="round" stroke-linejoin="round"/>
<path d="M7.36548 13.6548V17.7512V21.8476" stroke="white" stroke-width="1.5" stroke-linecap="round" stroke-linejoin="round"/>
<path d="M19.6547 12.2893C19.6547 13.0434 19.0434 13.6548 18.2892 13.6548C17.5351 13.6548 16.9238 13.0434 16.9238 12.2893C16.9238 11.5352 17.5351 10.9238 18.2892 10.9238C19.0434 10.9238 19.6547 11.5352 19.6547 12.2893Z" stroke="white" stroke-width="1.5" stroke-linecap="round" stroke-linejoin="round"/>
<path d="M14.1928 12.2893C14.1928 13.0434 13.5815 13.6548 12.8274 13.6548C12.0732 13.6548 11.4619 13.0434 11.4619 12.2893C11.4619 11.5352 12.0732 10.9238 12.8274 10.9238C13.5815 10.9238 14.1928 11.5352 14.1928 12.2893Z" stroke="white" stroke-width="1.5" stroke-linecap="round" stroke-linejoin="round"/>
<path d="M8.73094 12.2893C8.73094 13.0434 8.11959 13.6548 7.36547 13.6548C6.61134 13.6548 6 13.0434 6 12.2893C6 11.5352 6.61134 10.9238 7.36547 10.9238C8.11959 10.9238 8.73094 11.5352 8.73094 12.2893Z" stroke="white" stroke-width="1.5" stroke-linecap="round" stroke-linejoin="round"/>
<path d="M14.1928 23.213C14.1928 23.9671 13.5815 24.5785 12.8274 24.5785C12.0732 24.5785 11.4619 23.9671 11.4619 23.213C11.4619 22.4589 12.0732 21.8475 12.8274 21.8475C13.5815 21.8475 14.1928 22.4589 14.1928 23.213Z" stroke="white" stroke-width="1.5" stroke-linecap="round" stroke-linejoin="round"/>
<path d="M8.73094 23.213C8.73094 23.9671 8.11959 24.5785 7.36547 24.5785C6.61134 24.5785 6 23.9671 6 23.213C6 22.4589 6.61134 21.8475 7.36547 21.8475C8.11959 21.8475 8.73094 22.4589 8.73094 23.213Z" stroke="white" stroke-width="1.5" stroke-linecap="round" stroke-linejoin="round"/>
<path d="M18.2892 24.5785C19.0434 24.5785 19.6547 23.9671 19.6547 23.213C19.6547 22.4589 19.0434 21.8475 18.2892 21.8475C17.5351 21.8475 16.9238 22.4589 16.9238 23.213C16.9238 23.9671 17.5351 24.5785 18.2892 24.5785Z" stroke="white" stroke-width="1.5" stroke-linecap="round" stroke-linejoin="round"/>
<path d="M22.4877 12.7624C22.6777 12.7274 22.8827 12.7049 23.1027 12.6949C23.3277 12.6849 23.5102 12.6799 23.6502 12.6799C23.7902 12.6799 23.9577 12.6849 24.1527 12.6949C24.3527 12.7049 24.5477 12.7274 24.7377 12.7624L26.0802 17.3074C26.1152 17.4224 26.1602 17.5899 26.2152 17.8099C26.2702 18.0299 26.3302 18.2674 26.3952 18.5224C26.4602 18.7724 26.5177 19.0099 26.5677 19.2349C26.6177 19.4549 26.6502 19.6224 26.6652 19.7374H26.7552C26.7752 19.6224 26.8102 19.4549 26.8602 19.2349C26.9102 19.0099 26.9652 18.7724 27.0252 18.5224C27.0902 18.2674 27.1502 18.0299 27.2052 17.8099C27.2652 17.5899 27.3127 17.4224 27.3477 17.3074L28.6902 12.7624C28.8902 12.7274 29.0852 12.7049 29.2752 12.6949C29.4702 12.6849 29.6377 12.6799 29.7777 12.6799C29.9177 12.6799 30.0952 12.6849 30.3102 12.6949C30.5302 12.7049 30.7402 12.7274 30.9402 12.7624L31.7352 22.9774C31.6102 23.0074 31.4677 23.0299 31.3077 23.0449C31.1477 23.0649 30.9978 23.0749 30.8577 23.0749C30.7277 23.0749 30.6002 23.0699 30.4752 23.0599C30.3502 23.0499 30.2253 23.0349 30.1002 23.0149L29.7627 17.7199C29.7477 17.4349 29.7302 17.1074 29.7102 16.7374C29.6952 16.3674 29.6802 15.9949 29.6652 15.6199C29.6552 15.2449 29.6477 14.9074 29.6427 14.6074H29.5527L27.5802 21.4399C27.4552 21.4599 27.3102 21.4774 27.1452 21.4924C26.9802 21.5024 26.8327 21.5074 26.7027 21.5074C26.5827 21.5074 26.4402 21.5024 26.2752 21.4924C26.1102 21.4774 25.9652 21.4599 25.8402 21.4399L23.8677 14.6074H23.7852C23.7752 14.9074 23.7627 15.2449 23.7477 15.6199C23.7377 15.9949 23.7252 16.3674 23.7102 16.7374C23.6952 17.1074 23.6802 17.4349 23.6652 17.7199L23.3277 23.0149C23.2027 23.0349 23.0752 23.0499 22.9452 23.0599C22.8152 23.0699 22.6827 23.0749 22.5477 23.0749C22.4077 23.0749 22.2602 23.0649 22.1052 23.0449C21.9502 23.0299 21.8127 23.0074 21.6927 22.9774L22.4877 12.7624Z" fill="white"/>
<defs>
<linearGradient id="paint0_linear_24_111" x1="2.32727" y1="1.49708" x2="18.4617" y2="40.3858" gradientUnits="userSpaceOnUse">
<stop stop-color="#00A1B4"/>
<stop offset="1" stop-color="#009FE3"/>
</linearGradient>
</defs>
</svg>
