<svg width="16" height="16" viewBox="0 0 16 16" fill="none" xmlns="http://www.w3.org/2000/svg">
<path d="M10.4 16H0.8C0.587827 16 0.384344 15.9157 0.234315 15.7657C0.0842854 15.6157 0 15.4122 0 15.2V3.2C0 2.35131 0.337142 1.53737 0.937258 0.937258C1.53737 0.337142 2.35131 0 3.2 0H8C8.84869 0 9.66263 0.337142 10.2627 0.937258C10.8629 1.53737 11.2 2.35131 11.2 3.2V10.856C11.2 11.0682 11.1157 11.2717 10.9657 11.4217C10.8157 11.5717 10.6122 11.656 10.4 11.656C10.1878 11.656 9.98434 11.5717 9.83432 11.4217C9.68429 11.2717 9.6 11.0682 9.6 10.856V3.2C9.6 2.77565 9.43143 2.36869 9.13137 2.06863C8.83131 1.76857 8.42435 1.6 8 1.6H3.2C2.77565 1.6 2.36869 1.76857 2.06863 2.06863C1.76857 2.36869 1.6 2.77565 1.6 3.2V14.4H9.6V14.056C9.6 13.8438 9.68429 13.6403 9.83432 13.4903C9.98434 13.3403 10.1878 13.256 10.4 13.256C10.6122 13.256 10.8157 13.3403 10.9657 13.4903C11.1157 13.6403 11.2 13.8438 11.2 14.056V15.2C11.2 15.4122 11.1157 15.6157 10.9657 15.7657C10.8157 15.9157 10.6122 16 10.4 16Z" fill="white"/>
<path d="M5.60001 13.6C4.96349 13.6 4.35304 13.3471 3.90296 12.897C3.45287 12.4469 3.20001 11.8365 3.20001 11.2C3.20001 9.31995 4.84801 7.62395 5.03201 7.43195C5.10638 7.35697 5.19486 7.29745 5.29235 7.25684C5.38984 7.21622 5.4944 7.19531 5.60001 7.19531C5.70562 7.19531 5.81019 7.21622 5.90767 7.25684C6.00516 7.29745 6.09364 7.35697 6.16801 7.43195C6.35201 7.62395 8.00001 9.31995 8.00001 11.2C8.00001 11.8365 7.74716 12.4469 7.29707 12.897C6.84698 13.3471 6.23653 13.6 5.60001 13.6ZM5.60001 9.24795C5.15018 9.80756 4.87229 10.4856 4.80001 11.2C4.80001 11.4121 4.8843 11.6156 5.03433 11.7656C5.18436 11.9157 5.38784 12 5.60001 12C5.81219 12 6.01567 11.9157 6.1657 11.7656C6.31573 11.6156 6.40001 11.4121 6.40001 11.2C6.32774 10.4856 6.04985 9.80756 5.60001 9.24795Z" fill="white"/>
<path d="M12 12H10.4C10.1878 12 9.98435 11.9157 9.83432 11.7657C9.68429 11.6156 9.60001 11.4121 9.60001 11.2C9.60001 10.9878 9.68429 10.7843 9.83432 10.6343C9.98435 10.4843 10.1878 10.4 10.4 10.4H12C12.2122 10.4 12.4157 10.3157 12.5657 10.1657C12.7157 10.0156 12.8 9.81215 12.8 9.59998V3.99998C12.8 3.36346 13.0529 2.75301 13.5029 2.30292C13.953 1.85283 14.5635 1.59998 15.2 1.59998C15.4122 1.59998 15.6157 1.68426 15.7657 1.83429C15.9157 1.98432 16 2.1878 16 2.39998C16 2.61215 15.9157 2.81563 15.7657 2.96566C15.6157 3.11569 15.4122 3.19998 15.2 3.19998C14.9878 3.19998 14.7843 3.28426 14.6343 3.43429C14.4843 3.58432 14.4 3.7878 14.4 3.99998V9.59998C14.4 10.2365 14.1472 10.8469 13.6971 11.297C13.247 11.7471 12.6365 12 12 12Z" fill="white"/>
<path d="M15.2 4.80005H13.6C13.1582 4.80005 12.8 5.15822 12.8 5.60005V7.20005C12.8 7.64188 13.1582 8.00005 13.6 8.00005H15.2C15.6418 8.00005 16 7.64188 16 7.20005V5.60005C16 5.15822 15.6418 4.80005 15.2 4.80005Z" fill="white"/>
<path d="M7.20001 5.6H4.00001C3.78784 5.6 3.58436 5.51571 3.43433 5.36569C3.2843 5.21566 3.20001 5.01217 3.20001 4.8C3.20001 4.58783 3.2843 4.38434 3.43433 4.23431C3.58436 4.08429 3.78784 4 4.00001 4H7.20001C7.41219 4 7.61567 4.08429 7.7657 4.23431C7.91573 4.38434 8.00001 4.58783 8.00001 4.8C8.00001 5.01217 7.91573 5.21566 7.7657 5.36569C7.61567 5.51571 7.41219 5.6 7.20001 5.6Z" fill="white"/>
</svg>
