<svg width="36" height="36" viewBox="0 0 36 36" fill="none" xmlns="http://www.w3.org/2000/svg">
<circle cx="17.7511" cy="17.7511" r="17.7511" fill="url(#paint0_linear_22_533)"/>
<path d="M26.0366 14.7089C25.4903 13.4258 24.6374 12.2964 23.5527 11.4199C22.468 10.5435 21.1847 9.94664 19.8155 9.68188L21.0524 7.70295L19.798 6.91895L18.1659 9.53021C16.5035 9.53792 14.8798 10.0325 13.4953 10.9529C12.1109 11.8732 11.0264 13.179 10.3759 14.7089C9.50455 14.7254 8.67448 15.0832 8.06411 15.7053C7.45375 16.3274 7.11182 17.1641 7.11182 18.0356C7.11182 18.9071 7.45375 19.7438 8.06411 20.3659C8.67448 20.988 9.50455 21.3457 10.3759 21.3623C11.0292 22.8985 12.1199 24.2086 13.5122 25.1294C14.9045 26.0503 16.537 26.5413 18.2063 26.5413C19.8756 26.5413 21.508 26.0503 22.9003 25.1294C24.2927 24.2086 25.3834 22.8985 26.0366 21.3623C26.908 21.3457 27.7381 20.988 28.3484 20.3659C28.9588 19.7438 29.3007 18.9071 29.3007 18.0356C29.3007 17.1641 28.9588 16.3274 28.3484 15.7053C27.7381 15.0832 26.908 14.7254 26.0366 14.7089ZM27.2918 19.3304C26.9535 19.6764 26.4924 19.8751 26.0085 19.8833L25.0505 19.9015L24.6754 20.7833C24.1358 22.0525 23.2348 23.135 22.0845 23.8958C20.9342 24.6567 19.5855 25.0624 18.2063 25.0624C16.8271 25.0624 15.4784 24.6567 14.3281 23.8958C13.1778 23.135 12.2768 22.0525 11.7371 20.7833L11.3621 19.9015L10.404 19.8833C9.91994 19.8743 9.45877 19.6756 9.11964 19.3301C8.78052 18.9845 8.59053 18.5197 8.59053 18.0356C8.59053 17.5514 8.78052 17.0866 9.11964 16.7411C9.45877 16.3956 9.91994 16.1969 10.404 16.1878L11.3621 16.1696L11.7371 15.2879C12.2768 14.0187 13.1778 12.9363 14.3281 12.1754C15.4784 11.4145 16.8271 11.0088 18.2063 11.0088C19.5855 11.0088 20.9342 11.4145 22.0845 12.1754C23.2348 12.9363 24.1358 14.0187 24.6754 15.2879L25.0505 16.1696L26.0085 16.1878C26.3696 16.1947 26.7207 16.3071 27.0185 16.5113C27.3164 16.7155 27.5478 17.0025 27.6843 17.3368C27.8209 17.6711 27.8564 18.0381 27.7867 18.3924C27.7169 18.7467 27.5449 19.0728 27.2918 19.3304Z" fill="white"/>
<path d="M15.9874 16.1865H14.1383V18.0356H15.9874V16.1865Z" fill="white"/>
<path d="M22.2743 16.1865H20.4252V18.0356H22.2743V16.1865Z" fill="white"/>
<path d="M18.2063 23.213C18.6919 23.213 19.1728 23.1174 19.6215 22.9315C20.0702 22.7457 20.4779 22.4733 20.8213 22.1299C21.1647 21.7865 21.4371 21.3788 21.6229 20.9301C21.8088 20.4814 21.9044 20.0005 21.9044 19.5149H14.5081C14.5081 20.0005 14.6038 20.4814 14.7897 20.9301C14.9755 21.3788 15.2479 21.7865 15.5913 22.1299C16.2848 22.8234 17.2255 23.213 18.2063 23.213Z" fill="white"/>
<defs>
<linearGradient id="paint0_linear_22_533" x1="2.32727" y1="1.49708" x2="18.4617" y2="40.3858" gradientUnits="userSpaceOnUse">
<stop stop-color="#00A1B4"/>
<stop offset="1" stop-color="#009FE3"/>
</linearGradient>
</defs>
</svg>
