<svg width="45" height="45" viewBox="0 0 45 45" fill="none" xmlns="http://www.w3.org/2000/svg">
<path d="M22.5 45C34.9264 45 45 34.9264 45 22.5C45 10.0736 34.9264 0 22.5 0C10.0736 0 0 10.0736 0 22.5C0 34.9264 10.0736 45 22.5 45Z" fill="#019FE3"/>
<path d="M44.253 28.278C44.235 28.242 44.208 28.206 44.163 28.17C39.834 23.85 35.514 19.53 31.194 15.21C29.709 13.725 28.251 12.231 26.748 10.773C25.155 9.22498 23.247 8.70298 21.087 9.23398C18.45 9.89098 16.632 12.321 16.659 14.976C16.677 16.587 16.659 18.198 16.659 19.818C16.659 19.899 16.659 19.989 16.659 20.106C16.56 20.106 16.497 20.106 16.434 20.106C15.867 20.106 15.3 20.097 14.724 20.106C14.175 20.115 13.698 20.304 13.311 20.7C12.915 21.105 12.753 21.591 12.753 22.149C12.753 24.867 12.753 27.594 12.753 30.312C12.753 31.554 12.753 32.805 12.753 34.047C12.753 34.623 12.951 35.109 13.365 35.514C16.497 38.637 19.62 41.76 22.743 44.892C22.788 44.937 22.824 44.964 22.869 44.991C33.138 44.829 41.733 37.791 44.253 28.278Z" fill="url(#paint0_linear_24_431)"/>
<path d="M22.5 23.589C21.024 23.589 19.818 24.795 19.818 26.271C19.818 27 20.124 27.711 20.655 28.215V30.636C20.655 31.653 21.483 32.481 22.5 32.481C23.517 32.481 24.345 31.653 24.345 30.636V28.215C24.876 27.711 25.182 27 25.182 26.271C25.182 24.795 23.976 23.589 22.5 23.589ZM23.445 27.279C23.193 27.522 23.04 27.855 23.04 28.206V30.636C23.04 30.933 22.797 31.185 22.491 31.185C22.194 31.185 21.942 30.942 21.942 30.636V28.206C21.942 27.864 21.798 27.522 21.537 27.279C21.258 27.018 21.105 26.658 21.105 26.271C21.105 25.506 21.726 24.885 22.491 24.885C23.256 24.885 23.877 25.506 23.877 26.271C23.886 26.658 23.724 27.009 23.445 27.279Z" fill="white"/>
<path d="M30.357 20.07H17.892V14.913C17.892 12.366 19.962 10.305 22.5 10.305C25.038 10.305 27.108 12.375 27.108 14.913V17.244C27.108 17.604 27.396 17.892 27.756 17.892C28.116 17.892 28.404 17.604 28.404 17.244V14.913C28.404 11.655 25.749 9 22.491 9C19.233 9 16.578 11.655 16.578 14.913V20.07H14.634C13.563 20.07 12.69 20.943 12.69 22.014V34.056C12.69 35.127 13.563 36 14.634 36H30.348C31.419 36 32.292 35.127 32.292 34.056V22.014C32.301 20.943 31.428 20.07 30.357 20.07ZM31.005 34.056C31.005 34.416 30.717 34.704 30.357 34.704H14.643C14.283 34.704 13.995 34.416 13.995 34.056V22.014C13.995 21.654 14.283 21.366 14.643 21.366H30.357C30.717 21.366 31.005 21.654 31.005 22.014V34.056Z" fill="white"/>
<defs>
<linearGradient id="paint0_linear_24_431" x1="14.8179" y1="10.549" x2="32.6775" y2="48.2588" gradientUnits="userSpaceOnUse">
<stop stop-color="#00A1B4"/>
<stop offset="1" stop-color="#009FE3"/>
</linearGradient>
</defs>
</svg>
