<svg width="45" height="45" viewBox="0 0 45 45" fill="none" xmlns="http://www.w3.org/2000/svg">
<path d="M22.5 45C34.9264 45 45 34.9264 45 22.5C45 10.0736 34.9264 0 22.5 0C10.0736 0 0 10.0736 0 22.5C0 34.9264 10.0736 45 22.5 45Z" fill="#019FE3"/>
<path d="M44.9458 24.03C44.9368 24.021 44.5 26 44.9188 24.003C40.5 22.5 37.422 19.422 34.353 16.344C34.056 16.047 32.914 16 32.5 16C31.906 16.009 32.594 14.5 32 14.5C28.571 14.5 32 13.5 26.5 12.5C25 11 24.5628 11.846 24.5628 11.855C24.2276 11.855 18.3417 11.855 15.0478 14.364C13.2528 14.364 12 18 11.5 16.5C10.5 20.5 9.99978 18.0569 9.99978 21.5C9.99978 23.6828 9.80195 28.3017 11.5002 30C15.1812 33.672 16.9648 37.827 20.6458 41.499C21.7618 42.615 22.8868 43.74 24.0028 44.865C24.0298 44.892 24.0568 44.919 24.0838 44.937C35.2618 44.163 44.1898 35.217 44.9458 24.03Z" fill="url(#paint0_linear_163_11)"/>
<path d="M22.5 37C19.83 37 17.2199 36.2082 14.9998 34.7248C12.7797 33.2414 11.0494 31.133 10.0276 28.6662C9.00585 26.1994 8.7385 23.485 9.2594 20.8663C9.78031 18.2475 11.0661 15.8421 12.9541 13.9541C14.8421 12.0661 17.2475 10.7803 19.8663 10.2594C22.485 9.7385 25.1994 10.0058 27.6662 11.0276C30.133 12.0494 32.2414 13.7797 33.7248 15.9998C35.2082 18.2199 36 20.83 36 23.5C36 27.0804 34.5777 30.5142 32.0459 33.0459C29.5142 35.5777 26.0804 37 22.5 37V37ZM22.5 12.0769C20.2407 12.0769 18.0322 12.7469 16.1537 14.0021C14.2752 15.2572 12.811 17.0413 11.9465 19.1286C11.0819 21.2159 10.8557 23.5127 11.2964 25.7285C11.7372 27.9444 12.8251 29.9798 14.4227 31.5773C16.0202 33.1749 18.0556 34.2628 20.2715 34.7036C22.4873 35.1443 24.7841 34.9181 26.8714 34.0535C28.9587 33.189 30.7428 31.7248 31.9979 29.8463C33.2531 27.9678 33.9231 25.7593 33.9231 23.5C33.9231 20.4704 32.7196 17.5649 30.5773 15.4227C28.4351 13.2804 25.5296 12.0769 22.5 12.0769Z" fill="white"/>
<path d="M22.4999 24.5385C21.473 24.5385 20.4691 24.234 19.6152 23.6634C18.7614 23.0929 18.0959 22.282 17.7029 21.3332C17.3099 20.3844 17.207 19.3404 17.4074 18.3332C17.6077 17.326 18.1023 16.4008 18.8284 15.6747C19.5546 14.9485 20.4797 14.454 21.487 14.2536C22.4942 14.0533 23.5382 14.1561 24.4869 14.5491C25.4357 14.9421 26.2466 15.6076 26.8172 16.4615C27.3877 17.3154 27.6922 18.3192 27.6922 19.3462C27.6922 20.7233 27.1452 22.0439 26.1714 23.0177C25.1977 23.9914 23.877 24.5385 22.4999 24.5385ZM22.4999 16.2308C21.8838 16.2308 21.2814 16.4135 20.7691 16.7558C20.2568 17.0982 19.8575 17.5847 19.6217 18.154C19.3859 18.7232 19.3242 19.3496 19.4444 19.954C19.5646 20.5583 19.8613 21.1134 20.297 21.5491C20.7327 21.9848 21.2878 22.2815 21.8921 22.4017C22.4965 22.5219 23.1229 22.4602 23.6921 22.2244C24.2614 21.9886 24.748 21.5893 25.0903 21.077C25.4326 20.5647 25.6153 19.9623 25.6153 19.3462C25.6153 18.5199 25.2871 17.7275 24.7028 17.1433C24.1186 16.559 23.3262 16.2308 22.4999 16.2308Z" fill="white"/>
<path d="M32.4177 31.8077C32.2736 31.8087 32.1308 31.7796 31.9985 31.7224C31.8662 31.6652 31.7473 31.5811 31.6492 31.4754C30.547 30.2731 29.2072 29.3127 27.7146 28.6548C26.222 27.997 24.6092 27.6562 22.9781 27.6539H22.0227C18.9823 27.6473 16.0587 28.8242 13.8708 30.9354C13.6686 31.1022 13.4109 31.1864 13.1492 31.1711C12.8876 31.1558 12.6414 31.0422 12.4601 30.8529C12.2788 30.6637 12.1757 30.4129 12.1715 30.1509C12.1674 29.8888 12.2625 29.6349 12.4377 29.44C15.0088 26.9549 18.4469 25.5692 22.0227 25.5769H22.9781C24.8953 25.5813 26.7909 25.982 28.5459 26.7541C30.3008 27.5261 31.8771 28.6527 33.1758 30.0631C33.313 30.211 33.4041 30.3957 33.4381 30.5947C33.472 30.7936 33.4472 30.998 33.3668 31.1831C33.2864 31.3682 33.1538 31.5258 32.9853 31.6367C32.8167 31.7476 32.6195 31.8071 32.4177 31.8077V31.8077Z" fill="white"/>
<defs>
<linearGradient id="paint0_linear_163_11" x1="12.2839" y1="13.0146" x2="26.9212" y2="50.015" gradientUnits="userSpaceOnUse">
<stop stop-color="#00A1B4"/>
<stop offset="1" stop-color="#009FE3"/>
</linearGradient>
</defs>
</svg>
