<svg width="63" height="44" viewBox="0 0 63 44" fill="none" xmlns="http://www.w3.org/2000/svg">
<path d="M45.8329 36.817H19.5901C18.9565 36.817 18.4423 36.2338 18.4423 35.5151C18.4423 34.7965 18.9565 34.2133 19.5901 34.2133H45.8329C46.4665 34.2133 46.9808 34.7965 46.9808 35.5151C46.9808 36.2338 46.4665 36.817 45.8329 36.817Z" fill="white"/>
<path d="M13.348 43.8992C9.27073 43.8992 5.95337 40.1394 5.95337 35.5125C5.95337 30.8857 9.26844 27.1259 13.348 27.1259C17.4229 27.1259 20.7403 30.8857 20.7403 35.5125C20.7403 40.1394 17.4229 43.8992 13.348 43.8992ZM13.348 29.7322C10.5357 29.7322 8.24912 32.3255 8.24912 35.5151C8.24912 38.7047 10.5357 41.298 13.348 41.298C16.158 41.298 18.4446 38.7047 18.4446 35.5151C18.4446 32.3255 16.1557 29.7322 13.348 29.7322Z" fill="white"/>
<path d="M52.0798 43.8991C48.0025 43.8991 44.6852 40.1393 44.6852 35.5124C44.6852 30.8856 48.0002 27.1258 52.0798 27.1258C56.1594 27.1258 59.4744 30.8856 59.4744 35.5124C59.4744 40.1393 56.1571 43.8991 52.0798 43.8991ZM52.0798 29.7321C49.2675 29.7321 46.9809 32.3255 46.9809 35.5151C46.9809 38.7046 49.2675 41.298 52.0798 41.298C54.8921 41.298 57.1787 38.7046 57.1787 35.5151C57.1787 32.3255 54.8898 29.7321 52.0798 29.7321Z" fill="white"/>
<path d="M42.2827 36.4026H22.9135C22.4459 36.4026 22.0664 35.893 22.0664 35.265C22.0664 34.6371 22.4459 34.1274 22.9135 34.1274H42.2827C42.7503 34.1274 43.1298 34.6371 43.1298 35.265C43.1298 35.893 42.7503 36.4026 42.2827 36.4026Z" fill="white"/>
<path d="M58.7962 36.7975H58.1405C57.6574 36.7975 57.2653 36.2145 57.2653 35.4961C57.2653 34.7778 57.6574 34.1948 58.1405 34.1948H58.7962C59.8798 34.1948 60.7929 33.0443 60.9592 31.4514L59.6796 22.7516C59.6796 21.935 59.3761 20.9264 59.1187 20.4241C58.8632 19.9243 58.4938 19.6068 58.0719 19.5287L46.4118 17.4152C46.2437 17.384 46.0844 17.2825 45.9549 17.1211L35.4151 3.94843C34.7201 3.0791 33.8361 2.60018 32.9258 2.60018H16.4378C15.6238 2.60018 14.8763 3.20924 14.4369 4.22953L9.50925 15.6948C9.39897 15.9577 9.22567 16.1503 9.02611 16.2388L3.07437 18.9066C2.19037 19.3023 1.6337 20.6219 1.77549 21.9805L2.60874 29.9164C2.84506 32.1626 4.12643 33.7946 5.65638 33.7946H6.64738C7.13053 33.7946 7.52264 34.3776 7.52264 35.096C7.52264 35.8143 7.13053 36.3974 6.64738 36.3974H5.65288C3.25468 36.3974 1.24334 33.8414 0.875732 30.3173L0.0424889 22.3814C-0.232341 19.7473 0.851225 17.1836 2.56498 16.4158L8.20862 13.8859L12.963 2.82402C13.7245 1.05673 15.0234 0 16.4378 0H32.9293C34.2492 0 35.5324 0.694943 36.5424 1.95729L46.8827 14.8801L58.2855 16.9467C59.1818 17.1107 59.973 17.7848 60.5156 18.8546C61.0601 19.9217 61.1841 21.0452 61.6856 23.3204L62.6887 31.8522C62.3893 34.7205 60.748 36.7975 58.7962 36.7975Z" fill="white"/>
<path d="M37.2298 19.3389H16.9333C16.4448 19.3389 16.0483 18.5744 16.0483 17.6325C16.0483 16.6906 16.4448 15.9261 16.9333 15.9261H37.2298C37.7183 15.9261 38.1147 16.6906 38.1147 17.6325C38.1147 18.5744 37.7183 19.3389 37.2298 19.3389Z" fill="white"/>
</svg>
