<svg width="52" height="52" viewBox="0 0 52 52" fill="none" xmlns="http://www.w3.org/2000/svg">
<path d="M32.8331 34.0446C27.0108 37.0362 22.5696 33.6659 21.3509 28.1718C24.8398 28.1718 28.3303 28.1718 31.8191 28.1718C32.0369 28.1718 32.8071 28.1101 32.8071 27.7493C32.8071 27.0814 32.8071 26.4136 32.8071 25.7457C32.8071 25.5214 32.3083 25.4987 32.1799 25.4987C29.9374 25.4987 27.6965 25.4987 25.454 25.4987C24.2336 25.4987 22.5631 25.7961 21.3704 25.4987C20.0509 25.1688 20.7643 25.1851 20.9918 23.7161C24.5993 23.7161 28.2084 23.7161 31.8159 23.7161C32.0336 23.7161 32.8039 23.6543 32.8039 23.2936C32.8039 22.6111 32.8039 21.9302 32.8039 21.2477C32.8039 21.0234 32.305 21.0007 32.1766 21.0007C29.6433 21.0007 27.1099 21.0007 24.5765 21.0007C24.1573 21.0007 21.3915 21.3614 21.0503 21.0007C21.2436 21.2038 21.7978 19.3724 22.0789 18.9158C24.2661 15.3473 28.0264 13.1552 32.3375 15.2807C32.6251 15.4221 33.6765 15.4676 33.8049 15.0434C34.0779 14.1448 34.3493 13.2462 34.6223 12.3476C34.6548 12.2403 34.6223 12.1591 34.5134 12.1071C26.5298 8.26394 18.2878 12.6921 16.276 21.0023C15.6699 21.0023 15.0638 21.0023 14.456 21.0023C14.2383 21.0023 13.468 21.0641 13.468 21.4248C13.468 22.1073 13.468 22.7882 13.468 23.4707C13.468 23.6949 13.9669 23.7177 14.0953 23.7177C16.5181 23.7177 15.9104 23.6056 15.8145 25.5003C15.3611 25.5003 14.9094 25.5003 14.4576 25.5003C14.2399 25.5003 13.4696 25.5621 13.4696 25.9228C13.4696 26.5907 13.4696 27.2586 13.4696 27.9264C13.4696 28.1507 13.9685 28.1734 14.0969 28.1734C14.5503 28.1734 16.0485 27.9151 16.3654 28.1734C16.4873 28.2726 16.9244 31.7159 17.2673 32.4358C18.3918 34.8002 20.3418 36.7486 22.7386 37.8146C26.4859 39.4818 31.0781 39.0869 34.5816 37.0248C34.8043 36.9452 34.9635 36.8314 34.9278 36.6998C34.697 35.8418 34.4646 34.9822 34.2339 34.1242C34.1153 33.6708 33.1061 33.9048 32.8331 34.0446ZM17.6199 27.7477C17.5825 27.5202 17.1535 27.5007 16.9926 27.5007C14.7794 27.5007 15.028 27.8549 15.0784 26.1666C15.5285 26.1666 15.977 26.1666 16.4271 26.1666C16.6449 26.1666 17.4151 26.1048 17.4151 25.7441C17.4151 24.9234 17.4444 24.1109 17.4964 23.2919C17.511 23.0709 16.9845 23.0449 16.8691 23.0449C14.6916 23.0449 15.0134 23.3537 15.0751 21.6702C15.6471 21.6702 16.2208 21.6702 16.7928 21.6702C17.082 21.6702 17.7044 21.6117 17.7808 21.2477C18.7623 16.6294 21.151 13.1682 25.8651 11.9706C27.7664 11.4879 32.4155 10.7128 32.8348 13.0431C32.8884 13.3404 32.7031 13.8361 32.5179 14.2927C26.7313 12.1282 21.2826 15.0743 19.8169 21.3354C19.7454 21.6409 20.2231 21.6718 20.4246 21.6718C22.7078 21.6718 24.9925 21.6718 27.2756 21.6718C28.2506 21.6718 30.0934 21.3403 31.031 21.6718C31.8126 21.9481 31.3089 21.7498 31.2098 23.0466C27.6136 23.0466 24.0159 23.0466 20.4198 23.0466C20.1809 23.0466 19.4561 23.1067 19.4318 23.4691C19.3765 24.2897 19.3505 25.0989 19.3505 25.9212C19.3505 26.1454 19.8494 26.1682 19.9778 26.1682C22.3519 26.1682 24.7244 26.1682 27.0985 26.1682C28.2051 26.1682 29.9211 25.8708 31.0018 26.1682C31.8516 26.4038 31.3203 26.2283 31.213 27.5023C27.6835 27.5023 24.154 27.5023 20.6245 27.5023C20.4685 27.5023 19.5715 27.5787 19.6365 27.9248C20.9219 34.7742 26.8028 37.3319 32.7909 34.9383C32.9534 35.5412 33.1159 36.1457 33.2784 36.7486C25.6458 41.1507 18.798 35.0829 17.6199 27.7477Z" fill="url(#paint0_linear_40_2998)"/>
<path d="M33.5514 1.0181C23.8891 -1.75903 13.0179 1.2456 6.33588 8.80672C-1.15862 17.2892 -2.12224 30.0357 4.07551 39.5225C9.958 48.5282 21.0697 52.7532 31.5022 50.4896C43.407 47.9058 51.7351 37.5286 52 25.4223C51.753 14.1708 44.486 4.16085 33.5514 1.0181ZM24.0955 50.3271C11.3978 49.2075 1.54376 38.0697 1.54376 25.4223C1.54376 11.4408 13.663 -0.483401 27.8427 0.769474C40.7241 1.90697 50.1182 13.0203 50.3945 25.6758C50.089 39.646 38.4897 51.5978 24.0955 50.3271Z" fill="url(#paint1_linear_40_2998)"/>
<defs>
<linearGradient id="paint0_linear_40_2998" x1="14.8751" y1="11.8939" x2="30.0455" y2="39.7788" gradientUnits="userSpaceOnUse">
<stop stop-color="#00A1B4"/>
<stop offset="1" stop-color="#009FE3"/>
</linearGradient>
<linearGradient id="paint1_linear_40_2998" x1="3.4088" y1="2.15445" x2="26.3388" y2="58.4053" gradientUnits="userSpaceOnUse">
<stop stop-color="#00A1B4"/>
<stop offset="1" stop-color="#009FE3"/>
</linearGradient>
</defs>
</svg>
