<svg width="45" height="45" viewBox="0 0 45 45" fill="none" xmlns="http://www.w3.org/2000/svg">
<path d="M22.5 45C34.9264 45 45 34.9264 45 22.5C45 10.0736 34.9264 0 22.5 0C10.0736 0 0 10.0736 0 22.5C0 34.9264 10.0736 45 22.5 45Z" fill="#019FE3"/>
<path d="M44.946 24.03C44.937 24.021 44.928 24.012 44.919 24.003C41.841 20.934 38.763 17.856 35.694 14.778C35.397 14.481 35.046 14.337 34.632 14.337C34.038 14.346 33.435 14.337 32.841 14.337C29.412 14.337 25.992 14.337 22.563 14.337C22.563 14.346 22.563 14.346 22.563 14.355C22.059 14.355 21.555 14.355 21.051 14.355C19.053 14.355 17.046 14.364 15.048 14.364C13.554 14.364 12.051 14.364 10.557 14.373C10.503 14.373 10.44 14.373 10.386 14.373C10.044 14.391 9.75602 14.517 9.51302 14.742C9.20702 15.03 9.07202 15.39 9.07202 15.804C9.08102 17.586 9.08102 19.377 9.08102 21.159C9.08102 23.841 9.09002 26.514 9.08102 29.196C9.08102 29.7 9.24302 30.105 9.60302 30.465C13.284 34.137 16.965 37.827 20.646 41.499C21.762 42.615 22.887 43.74 24.003 44.865C24.03 44.892 24.057 44.919 24.084 44.937C35.262 44.163 44.19 35.217 44.946 24.03Z" fill="url(#paint0_linear_24_443)"/>
<path d="M35.982 15.678C35.982 14.913 35.361 14.301 34.596 14.301L10.377 14.337C10.008 14.337 9.657 14.481 9.396 14.742C9.135 15.003 8.991 15.354 8.991 15.723L9.009 29.331C9.009 29.7 9.153 30.051 9.414 30.312C9.675 30.573 10.026 30.717 10.395 30.717L34.614 30.681C35.379 30.681 36 30.06 35.991 29.295L35.982 15.678ZM26.973 24.426L33.246 29.295L11.736 29.322L18.045 24.426C18.351 24.192 18.405 23.76 18.171 23.454C17.937 23.148 17.505 23.094 17.199 23.328L10.404 28.602L10.386 16.344L22.113 24.444C22.23 24.525 22.365 24.57 22.509 24.57C22.644 24.57 22.788 24.525 22.905 24.444L34.605 16.308L34.623 28.602L27.828 23.328C27.522 23.094 27.09 23.148 26.856 23.454C26.613 23.751 26.676 24.192 26.973 24.426ZM11.898 15.714L33.075 15.687L22.5 23.031L11.898 15.714Z" fill="white"/>
<defs>
<linearGradient id="paint0_linear_24_443" x1="11.4237" y1="15.6273" x2="23.7801" y2="50.543" gradientUnits="userSpaceOnUse">
<stop stop-color="#00A1B4"/>
<stop offset="1" stop-color="#009FE3"/>
</linearGradient>
</defs>
</svg>
