<svg width="681" height="315" viewBox="0 0 681 315" fill="none" xmlns="http://www.w3.org/2000/svg">
<path d="M162.454 148.633C163.473 144.14 164.521 139.582 165.609 134.956C168.871 121.348 172.84 107.98 177.525 94.8416C182.21 81.7081 187.13 68.5423 192.293 55.3397C192.973 53.8436 193.648 52.3797 194.328 50.9527C195.008 49.5256 195.752 48.1952 196.57 46.9707C197.516 44.7933 198.742 43.09 200.235 41.8655C201.728 40.3694 203.221 39.5546 204.718 39.4165C206.211 39.283 207.571 39.6927 208.793 40.641C211.645 42.8184 212.321 45.8797 210.828 49.8294C210.148 51.4636 209.436 53.0656 208.687 54.6262C207.938 56.1913 207.295 57.7887 206.753 59.4229C196.57 89.5017 188.623 119.985 182.922 150.879C182.109 155.234 181.324 159.455 180.58 163.534C179.831 167.617 178.917 171.769 177.828 175.986C177.015 180.069 175.518 183.812 173.345 187.214C170.763 192.25 167.162 195.311 162.55 196.402C157.934 197.489 153.45 196.066 149.105 192.116C147.203 190.482 145.472 188.682 143.91 186.707C142.348 184.737 140.887 182.661 139.532 180.479C136.409 175.171 133.896 169.491 131.994 163.433C130.092 157.379 128.393 151.284 126.9 145.162C123.776 132.097 121.567 118.964 120.281 105.761C118.99 92.5629 118.209 79.2913 117.938 65.9552C117.938 64.4591 118.007 62.9261 118.14 61.361C118.273 59.7958 118.411 58.2675 118.549 56.7668C118.958 53.908 119.904 51.5971 121.402 49.8248C122.894 48.0571 124.865 47.1042 127.309 46.9661C129.753 46.6945 131.893 47.2423 133.726 48.6003C135.559 49.9629 136.882 52.2094 137.699 55.3351C138.379 57.6506 138.953 60.0996 139.431 62.6822C139.904 65.2693 140.35 67.7874 140.754 70.2364C142.927 82.4861 144.998 94.6299 146.969 106.677C148.935 118.72 151.007 130.868 153.184 143.118C153.864 146.386 154.677 149.585 155.628 152.711C156.574 155.841 157.392 159.11 158.071 162.512H159.293C160.377 157.752 161.434 153.121 162.449 148.633H162.454Z" fill="white"/>
<path d="M248.127 110.783C247.851 111.736 247.479 112.588 247.006 113.334C246.528 114.084 246.156 114.936 245.885 115.884C243.575 121.192 241.641 126.536 240.079 131.908C238.517 137.285 237.397 142.828 236.717 148.545C236.441 151.813 236.515 155.045 236.919 158.24C237.328 161.439 237.663 164.602 237.939 167.732C238.072 169.504 238.311 171.203 238.651 172.837C238.986 174.472 239.225 176.037 239.363 177.533C239.363 179.305 239.326 181.004 239.262 182.638C239.193 184.272 238.954 185.975 238.55 187.743C237.052 192.779 233.662 195.702 228.366 196.522C222.39 197.337 217.975 195.366 215.127 190.602C213.497 188.019 212.481 185.161 212.073 182.026C209.629 171.001 207.796 159.98 206.574 148.955C205.352 137.93 205.15 126.84 205.963 115.681C206.234 110.921 206.744 106.226 207.493 101.595C208.237 96.9684 208.949 92.2729 209.634 87.5084C209.905 86.5601 210.143 85.6394 210.346 84.7509C210.548 83.8671 210.855 83.0154 211.264 82.2006C213.57 76.4832 217.507 74.0342 223.079 74.8536C225.522 75.1298 227.594 76.1472 229.294 77.9149C230.989 79.6872 232.045 81.9981 232.449 84.8568C232.72 86.2194 232.858 87.5084 232.858 88.7375V92.6182C233.129 93.433 233.299 94.2524 233.368 95.0672C233.437 95.882 233.469 96.973 233.469 98.3356C234.282 97.6543 234.893 97.0098 235.302 96.3976C235.711 95.7853 236.115 95.2099 236.524 94.6621C238.017 93.4376 239.376 92.0796 240.598 90.5789C241.82 89.0828 243.175 87.7892 244.673 86.6982C248.067 84.2492 251.6 83.3653 255.265 84.0466C258.931 84.7279 261.852 86.9053 264.025 90.5789C266.06 94.1189 267.213 97.9259 267.489 102.009C268.168 106.907 268.233 111.778 267.691 116.607C267.149 121.44 266.331 126.237 265.247 130.997C264.971 131.812 264.705 132.599 264.434 133.345C264.158 134.095 263.754 134.808 263.212 135.49C261.444 137.805 259.207 138.758 256.492 138.349C253.772 137.939 251.875 136.443 250.787 133.856C250.378 132.769 250.107 131.609 249.974 130.385C249.836 129.16 249.772 128.005 249.772 126.914C249.634 124.193 249.569 121.541 249.569 118.954V110.995C249.294 110.995 249.06 110.963 248.857 110.894C248.655 110.825 248.416 110.792 248.145 110.792L248.127 110.783Z" fill="white"/>
<path d="M350.838 126.435C350.562 137.05 349.069 146.644 346.354 155.22C343.635 163.796 339.225 171.825 333.116 179.31C330.943 181.625 328.633 183.697 326.189 185.538C323.745 187.375 321.095 188.977 318.247 190.335C306.295 195.643 295.362 193.944 285.449 185.23C281.917 182.237 279.032 178.836 276.79 175.024C274.549 171.217 272.886 167.065 271.802 162.572C266.506 143.113 268.407 124.396 277.507 106.433C278.729 103.85 280.36 101.365 282.395 98.9801C284.429 96.6001 286.469 94.3214 288.504 92.1394C292.032 88.604 295.633 86.7304 299.299 86.5232C302.964 86.3207 306.97 87.4439 311.315 89.8929C311.995 90.1691 312.739 90.3717 313.557 90.5052C314.37 90.6433 315.188 90.5743 316.001 90.3027C320.888 89.3544 325.169 89.2807 328.835 90.1001C332.5 90.9195 335.661 92.3466 338.307 94.3859C340.952 96.4252 343.125 98.9801 344.825 102.041C346.52 105.103 347.847 108.403 348.798 111.943C349.478 114.802 349.951 117.527 350.222 120.11C350.493 122.697 350.695 124.805 350.833 126.439L350.838 126.435ZM301.949 168.077C304.526 173.661 308.536 174.886 313.966 171.751C316.543 170.393 319.124 168.349 321.706 165.628C327.411 159.372 331.38 152.532 333.621 145.111C335.863 137.695 336.437 129.768 335.353 121.33C335.077 119.29 334.604 117.246 333.929 115.207C333.249 113.168 332.505 111.193 331.687 109.287C330.599 106.976 329.377 105.48 328.022 104.794C326.662 104.113 324.691 104.048 322.115 104.592C315.188 105.406 309.753 108.265 305.817 113.168C301.876 118.066 299.23 123.783 297.875 130.316C296.515 136.848 296.244 143.55 297.062 150.423C297.875 157.296 299.505 163.184 301.949 168.082V168.077Z" fill="white"/>
<path d="M432.386 115.76C432.083 127.507 430.429 138.128 427.425 147.615C424.416 157.103 419.533 165.992 412.772 174.274C410.365 176.838 407.811 179.13 405.105 181.165C402.4 183.2 399.469 184.972 396.313 186.473C383.084 192.347 370.985 190.464 360.015 180.824C356.106 177.514 352.914 173.744 350.433 169.527C347.953 165.311 346.111 160.717 344.912 155.745C339.051 134.205 341.155 113.495 351.224 93.6125C352.574 90.7538 354.379 88.0009 356.635 85.3678C358.89 82.7346 361.145 80.212 363.396 77.7998C367.301 73.8869 371.288 71.8107 375.344 71.5852C379.4 71.3596 383.833 72.6025 388.647 75.3139C389.396 75.6178 390.227 75.8433 391.127 75.9906C392.028 76.1425 392.932 76.0689 393.833 75.7651C399.244 74.7109 403.98 74.6372 408.036 75.5395C412.092 76.4418 415.588 78.0253 418.518 80.2856C421.449 82.5459 423.851 85.3678 425.735 88.7559C427.613 92.144 429.079 95.7991 430.131 99.712C430.879 102.875 431.408 105.89 431.711 108.749C432.009 111.612 432.234 113.946 432.386 115.75V115.76ZM378.279 161.849C381.132 168.027 385.569 169.38 391.582 165.914C394.435 164.408 397.292 162.153 400.149 159.138C406.46 152.209 410.856 144.641 413.337 136.433C415.817 128.226 416.456 119.451 415.252 110.111C414.949 107.851 414.425 105.591 413.672 103.335C412.919 101.075 412.092 98.8926 411.192 96.7843C409.988 94.2248 408.633 92.5675 407.136 91.8126C405.634 91.0622 403.452 90.9886 400.599 91.587C392.932 92.4893 386.92 95.6518 382.565 101.075C378.206 106.497 375.275 112.823 373.773 120.055C372.271 127.282 371.968 134.703 372.873 142.307C373.773 149.917 375.578 156.426 378.284 161.849H378.279Z" fill="white"/>
<path d="M468.583 105.683C470.076 104.187 471.536 102.654 472.96 101.088C474.384 99.5233 475.845 97.995 477.338 96.4942C478.151 95.8129 479.001 95.035 479.883 94.1465C480.765 93.2581 481.748 92.4801 482.836 91.7988C486.364 89.7595 489.828 89.3497 493.227 90.5743C496.622 91.7988 498.996 94.3859 500.356 98.331C501.302 101.056 501.95 103.841 502.29 106.7C502.625 109.559 502.933 112.348 503.209 115.069C503.617 118.337 503.888 121.601 504.022 124.87C504.155 128.134 504.564 131.471 505.244 134.873C505.652 134.058 505.988 133.308 506.263 132.626C506.534 131.945 506.805 131.199 507.076 130.38C509.111 123.986 511.385 117.725 513.902 111.598C516.415 105.476 519.369 99.4865 522.763 93.6355C524.394 90.6433 526.19 87.7155 528.161 84.8568C530.127 81.9981 532.134 79.1394 534.169 76.2806C535.799 73.8316 537.733 72.1652 539.975 71.2813C542.217 70.3975 544.422 70.1581 546.594 70.5678C548.767 70.9775 550.77 71.9949 552.603 73.6291C554.435 75.2633 555.758 77.4407 556.576 80.1613C558.207 84.9259 559.02 89.8929 559.02 95.0626C558.882 103.096 558.68 111.087 558.409 119.051C558.133 127.01 557.798 135.011 557.389 143.039C557.113 148.485 557.187 153.756 557.591 158.861C557.995 163.967 559.424 168.966 561.868 173.864C563.903 178.085 563.292 181.823 560.035 185.092C557.182 188.36 553.379 189.313 548.629 187.95C542.791 185.911 538.308 182.099 535.184 176.52C532.331 171.76 530.021 166.719 528.257 161.412C526.488 156.104 525.473 150.594 525.202 144.876C525.064 140.521 525.234 136.199 525.712 131.913C526.185 127.627 526.631 123.374 527.035 119.152C527.035 118.204 527.104 117.283 527.237 116.395C527.37 115.511 527.306 114.526 527.035 113.435C526.626 113.978 526.254 114.457 525.914 114.862C525.574 115.272 525.267 115.815 524.996 116.496C523.365 120.446 521.803 124.455 520.31 128.539C518.813 132.622 517.32 136.705 515.827 140.788C515.147 142.289 514.536 143.886 513.994 145.585C513.452 147.288 512.772 148.886 511.959 150.382C511.008 152.288 509.787 153.885 508.294 155.179C506.796 156.472 504.899 157.052 502.588 156.914C500.416 156.914 498.546 156.233 496.984 154.875C495.423 153.517 494.302 151.883 493.622 149.977C492.533 147.118 491.615 144.227 490.87 141.299C490.122 138.376 489.41 135.347 488.73 132.217C488.05 129.225 487.54 126.163 487.2 123.028C486.86 119.898 486.488 116.496 486.079 112.823C485.4 113.914 484.789 114.761 484.247 115.373C483.705 115.985 483.227 116.634 482.823 117.311C476.576 126.43 472.299 136.231 469.988 146.708C469.309 149.434 469.102 152.117 469.378 154.773C469.649 157.425 469.851 160.118 469.988 162.839C469.988 164.339 470.089 165.969 470.296 167.737C470.498 169.509 470.53 171.139 470.397 172.635C470.122 176.446 468.937 179.609 466.833 182.127C464.724 184.645 462.111 186.109 458.992 186.514C451.523 187.605 446.428 184.268 443.714 176.511C440.59 167.53 438.486 158.442 437.398 149.259C436.309 140.07 436.107 130.785 436.787 121.394C437.195 115.953 437.77 110.507 438.518 105.061C439.263 99.62 440.659 94.3767 442.694 89.3405C443.916 85.1238 445.749 81.0406 448.192 77.0908C450.227 74.2321 452.602 72.1928 455.321 70.9683C458.716 69.4722 461.803 69.6425 464.591 71.4793C467.375 73.316 468.969 76.1425 469.378 79.9496C469.378 81.4503 469.276 82.8773 469.07 84.2354C468.868 85.598 468.693 86.9606 468.56 88.3186C468.422 91.0438 468.252 93.8289 468.05 96.6876C467.848 99.5463 467.673 102.336 467.54 105.057C467.949 105.466 468.284 105.669 468.56 105.669L468.583 105.683Z" fill="white"/>
<path d="M332.22 133.119C332.661 141.571 330.199 148.407 325.84 154.833C324.126 150.971 323.989 147.703 323.029 143.804C322.606 142.091 323.865 137.953 325.068 136.972C327.521 134.979 329.303 134.367 332.22 133.119Z" fill="white"/>
<path d="M302.56 130.652C305.229 132.539 307.613 134.067 309.873 135.881C311.706 137.354 311.848 141.465 310.199 143.84C308.205 146.713 306.111 149.443 303.63 152.817C300.837 146.078 300.52 139.131 302.555 130.652H302.56Z" fill="white"/>
<path d="M319.064 160.054C316.832 163.359 313.502 166.204 310.952 166.199C308.398 166.199 307.016 163.999 306.299 160.984C308.118 157.342 309.997 150.865 312.069 148.218C313.056 146.957 315.922 146.892 316.896 148.122C318.982 150.759 318.444 155.667 319.064 160.054Z" fill="white"/>
<path d="M305.183 122.665C307.934 115.557 311.706 111.34 317.42 109.628C317.42 114.356 317.7 118.697 317.328 122.909C317.052 126.025 315.38 127.802 313.111 126.766C310.534 125.592 308.008 124.142 305.183 122.665Z" fill="white"/>
<path d="M324.273 109.747C329.662 111.722 330.58 116.924 332.721 124.469C329.662 125.611 329.074 126.785 326.258 126.946C325.036 127.015 323.033 124.17 322.96 122.296C322.813 118.43 323.727 114.328 324.273 109.747Z" fill="white"/>
<path d="M320.461 130.067C321.651 131.586 321.995 134.638 321.692 136.88C321.265 140.015 319.234 141.866 317.007 141.281C314.811 140.705 313.722 138.266 314.825 135.163C315.587 133.018 317.163 130.458 318.885 129.666C319.437 129.413 320.084 129.584 320.461 130.067ZM319.294 132.06C317.778 131.802 316.933 133.078 316.46 135.214C316.069 136.972 316.423 138.39 317.287 138.744C318.224 139.131 320.364 138.906 320.902 136.457C321.269 134.781 320.755 132.304 319.294 132.056V132.06Z" fill="white"/>
<path d="M410.962 124.175C411.449 133.529 408.725 141.092 403.902 148.209C402.005 143.937 401.853 140.314 400.787 136.001C400.319 134.109 401.711 129.528 403.047 128.442C405.762 126.232 407.733 125.56 410.962 124.175Z" fill="white"/>
<path d="M378.137 121.449C381.09 123.539 383.727 125.229 386.231 127.236C388.261 128.865 388.417 133.414 386.589 136.047C384.379 139.228 382.064 142.248 379.322 145.981C376.231 138.523 375.881 130.836 378.132 121.454L378.137 121.449Z" fill="white"/>
<path d="M396.401 153.986C393.929 157.641 390.245 160.79 387.425 160.79C384.595 160.79 383.066 158.355 382.276 155.017C384.288 150.985 386.368 143.817 388.661 140.89C389.754 139.495 392.928 139.421 394.003 140.784C396.309 143.702 395.716 149.134 396.401 153.991V153.986Z" fill="white"/>
<path d="M381.035 112.606C384.081 104.739 388.252 100.076 394.582 98.1791C394.582 103.409 394.889 108.215 394.481 112.878C394.177 116.326 392.326 118.291 389.814 117.15C386.961 115.852 384.168 114.245 381.035 112.611V112.606Z" fill="white"/>
<path d="M402.165 98.308C408.128 100.495 409.148 106.253 411.513 114.599C408.128 115.861 407.475 117.159 404.361 117.343C403.006 117.421 400.792 114.273 400.714 112.201C400.553 107.92 401.564 103.381 402.17 98.3126L402.165 98.308Z" fill="white"/>
<path d="M397.949 120.8C399.267 122.481 399.648 125.859 399.308 128.341C398.835 131.812 396.589 133.856 394.122 133.211C391.692 132.576 390.484 129.878 391.706 126.439C392.551 124.064 394.297 121.233 396.198 120.358C396.809 120.078 397.526 120.266 397.944 120.8H397.949ZM396.658 123.005C394.977 122.72 394.049 124.129 393.52 126.499C393.089 128.442 393.479 130.016 394.435 130.408C395.473 130.836 397.843 130.583 398.436 127.876C398.844 126.021 398.275 123.282 396.653 123.005H396.658Z" fill="white"/>
</svg>
