<svg width="146" height="141" viewBox="0 0 146 141" fill="none" xmlns="http://www.w3.org/2000/svg">
<rect x="2.5" y="2.5" width="141" height="136" rx="17.5" stroke="white" stroke-width="5" stroke-dasharray="10 10"/>
<path d="M59.209 88.59C59.209 89.598 59.02 90.447 58.642 91.137C58.27 91.827 57.733 92.352 57.031 92.712C56.329 93.066 55.495 93.243 54.529 93.243C53.563 93.243 52.732 93.066 52.036 92.712C51.34 92.352 50.803 91.827 50.425 91.137C50.053 90.447 49.867 89.598 49.867 88.59V80.733L49.975 80.607H50.839C51.295 80.607 51.628 80.724 51.838 80.958C52.054 81.192 52.162 81.564 52.162 82.074V88.608C52.162 89.526 52.354 90.222 52.738 90.696C53.128 91.17 53.728 91.407 54.538 91.407C55.348 91.407 55.945 91.17 56.329 90.696C56.713 90.222 56.905 89.526 56.905 88.608V80.706C57.091 80.67 57.283 80.649 57.481 80.643C57.685 80.631 57.868 80.625 58.03 80.625C58.186 80.625 58.375 80.631 58.597 80.643C58.825 80.649 59.029 80.67 59.209 80.706V88.59ZM62.6002 83.973C63.0742 83.973 63.4342 84.135 63.6802 84.459C63.9262 84.783 64.0492 85.23 64.0492 85.8V95.493C64.0492 95.991 63.9592 96.345 63.7792 96.555C63.6052 96.771 63.2872 96.879 62.8252 96.879H61.9702L61.8442 96.762V84.099L61.9702 83.973H62.6002ZM69.4672 88.428C69.4672 89.484 69.3022 90.363 68.9722 91.065C68.6422 91.761 68.2072 92.286 67.6672 92.64C67.1332 92.988 66.5602 93.162 65.9482 93.162C65.3542 93.162 64.8172 93.039 64.3372 92.793C63.8572 92.547 63.4102 92.286 62.9962 92.01L63.3112 90.327C63.6532 90.603 64.0222 90.858 64.4182 91.092C64.8202 91.32 65.2162 91.434 65.6062 91.434C65.9182 91.434 66.1912 91.32 66.4252 91.092C66.6652 90.864 66.8512 90.528 66.9832 90.084C67.1152 89.634 67.1812 89.079 67.1812 88.419C67.1812 87.765 67.1152 87.237 66.9832 86.835C66.8572 86.427 66.6862 86.13 66.4702 85.944C66.2602 85.752 66.0262 85.656 65.7682 85.656C65.5102 85.656 65.2312 85.728 64.9312 85.872C64.6312 86.016 64.3462 86.256 64.0762 86.592C63.8122 86.928 63.6022 87.387 63.4462 87.969L62.9692 86.502C63.0592 86.064 63.2602 85.641 63.5722 85.233C63.8842 84.825 64.2742 84.489 64.7422 84.225C65.2162 83.961 65.7412 83.829 66.3172 83.829C67.0192 83.829 67.6042 84.024 68.0722 84.414C68.5402 84.804 68.8882 85.344 69.1162 86.034C69.3502 86.724 69.4672 87.522 69.4672 88.428ZM74.9429 91.344C75.0629 91.68 75.1229 92.046 75.1229 92.442C75.1229 92.52 75.1199 92.604 75.1139 92.694C75.1079 92.778 75.0959 92.859 75.0779 92.937C74.8439 92.973 74.5739 93.006 74.2679 93.036C73.9619 93.066 73.6679 93.081 73.3859 93.081C72.7139 93.081 72.2189 92.91 71.9009 92.568C71.5829 92.22 71.4239 91.689 71.4239 90.975V79.878L71.5409 79.761H72.3959C72.8519 79.761 73.1669 79.869 73.3409 80.085C73.5209 80.295 73.6109 80.649 73.6109 81.147V90.525C73.6109 90.795 73.6679 90.999 73.7819 91.137C73.9019 91.275 74.0909 91.344 74.3489 91.344H74.9429ZM84.1047 88.536C84.1047 89.472 83.9547 90.294 83.6547 91.002C83.3547 91.71 82.9077 92.262 82.3137 92.658C81.7197 93.048 80.9847 93.243 80.1087 93.243C79.2327 93.243 78.4977 93.045 77.9037 92.649C77.3157 92.253 76.8717 91.701 76.5717 90.993C76.2717 90.285 76.1217 89.466 76.1217 88.536C76.1217 87.6 76.2717 86.781 76.5717 86.079C76.8777 85.371 77.3247 84.819 77.9127 84.423C78.5067 84.027 79.2387 83.829 80.1087 83.829C80.9907 83.829 81.7287 84.03 82.3227 84.432C82.9167 84.828 83.3607 85.38 83.6547 86.088C83.9547 86.79 84.1047 87.606 84.1047 88.536ZM78.4257 88.536C78.4257 89.07 78.4707 89.568 78.5607 90.03C78.6507 90.486 78.8187 90.855 79.0647 91.137C79.3107 91.413 79.6617 91.551 80.1177 91.551C80.5797 91.551 80.9307 91.413 81.1707 91.137C81.4107 90.855 81.5757 90.486 81.6657 90.03C81.7617 89.568 81.8097 89.07 81.8097 88.536C81.8097 88.008 81.7617 87.513 81.6657 87.051C81.5757 86.589 81.4107 86.217 81.1707 85.935C80.9307 85.653 80.5797 85.512 80.1177 85.512C79.6617 85.512 79.3107 85.653 79.0647 85.935C78.8187 86.217 78.6507 86.589 78.5607 87.051C78.4707 87.513 78.4257 88.008 78.4257 88.536ZM85.4819 90.561C85.4819 89.865 85.6409 89.292 85.9589 88.842C86.2769 88.392 86.6999 88.062 87.2279 87.852C87.7559 87.636 88.3379 87.528 88.9739 87.528C89.2859 87.528 89.6519 87.54 90.0719 87.564C90.4919 87.582 90.8759 87.63 91.2239 87.708V89.166C90.9239 89.1 90.5819 89.058 90.1979 89.04C89.8139 89.022 89.4689 89.013 89.1629 89.013C88.6769 89.013 88.3079 89.139 88.0559 89.391C87.8099 89.643 87.6869 89.982 87.6869 90.408C87.6869 90.726 87.7769 90.996 87.9569 91.218C88.1429 91.434 88.4039 91.542 88.7399 91.542C89.1479 91.542 89.5739 91.398 90.0179 91.11C90.4619 90.822 90.8339 90.408 91.1339 89.868L91.4669 91.443C91.2389 91.707 90.9689 91.977 90.6569 92.253C90.3509 92.529 89.9909 92.763 89.5769 92.955C89.1689 93.147 88.7009 93.243 88.1729 93.243C87.5669 93.243 87.0629 93.111 86.6609 92.847C86.2649 92.577 85.9679 92.238 85.7699 91.83C85.5779 91.416 85.4819 90.993 85.4819 90.561ZM93.2579 91.983C93.2039 92.187 93.1019 92.403 92.9519 92.631C92.8079 92.859 92.6549 93.027 92.4929 93.135C92.0549 93.087 91.6979 92.955 91.4219 92.739C91.1459 92.523 90.9359 92.265 90.7919 91.965C90.6539 91.659 90.5669 91.347 90.5309 91.029V87.06C90.5309 86.562 90.4139 86.202 90.1799 85.98C89.9519 85.758 89.6159 85.647 89.1719 85.647C88.7459 85.647 88.2959 85.713 87.8219 85.845C87.3539 85.971 86.8859 86.118 86.4179 86.286C86.2499 86.106 86.1119 85.866 86.0039 85.566C85.9019 85.26 85.8389 84.969 85.8149 84.693C86.1809 84.537 86.5889 84.399 87.0389 84.279C87.4889 84.153 87.9449 84.054 88.4069 83.982C88.8749 83.91 89.3069 83.874 89.7029 83.874C90.2669 83.874 90.7799 83.979 91.2419 84.189C91.7039 84.399 92.0699 84.726 92.3399 85.17C92.6159 85.614 92.7539 86.196 92.7539 86.916V90.588C92.7539 90.9 92.7869 91.17 92.8529 91.398C92.9249 91.626 93.0599 91.821 93.2579 91.983ZM102.201 90.444C102.201 90.762 102.24 91.062 102.318 91.344C102.396 91.626 102.525 91.839 102.705 91.983C102.657 92.187 102.558 92.403 102.408 92.631C102.258 92.859 102.102 93.027 101.94 93.135C101.274 93.063 100.785 92.79 100.473 92.316C100.167 91.836 100.014 91.275 100.014 90.633V79.878L100.131 79.761H100.986C101.442 79.761 101.757 79.869 101.931 80.085C102.111 80.295 102.201 80.649 102.201 81.147V90.444ZM94.6053 88.644C94.6053 87.588 94.7703 86.712 95.1003 86.016C95.4363 85.314 95.8713 84.789 96.4053 84.441C96.9453 84.087 97.5183 83.91 98.1243 83.91C98.7183 83.91 99.2553 84.033 99.7353 84.279C100.215 84.525 100.662 84.789 101.076 85.071L100.77 86.745C100.422 86.469 100.047 86.217 99.6453 85.989C99.2493 85.755 98.8593 85.638 98.4753 85.638C98.1573 85.638 97.8783 85.752 97.6383 85.98C97.4043 86.208 97.2213 86.547 97.0893 86.997C96.9573 87.441 96.8913 87.993 96.8913 88.653C96.8913 89.307 96.9543 89.838 97.0803 90.246C97.2123 90.648 97.3863 90.945 97.6023 91.137C97.8183 91.323 98.0553 91.416 98.3133 91.416C98.5653 91.416 98.8413 91.347 99.1413 91.209C99.4413 91.065 99.7233 90.825 99.9873 90.489C100.257 90.147 100.473 89.688 100.635 89.112L101.112 90.57C101.022 91.008 100.821 91.434 100.509 91.848C100.197 92.256 99.8043 92.592 99.3303 92.856C98.8623 93.114 98.3403 93.243 97.7643 93.243C97.0623 93.243 96.4773 93.051 96.0093 92.667C95.5413 92.277 95.1903 91.737 94.9563 91.047C94.7223 90.351 94.6053 89.55 94.6053 88.644ZM49.4586 111.364C49.4586 110.794 49.2846 110.353 48.9366 110.041C48.5946 109.729 48.1506 109.573 47.6046 109.573C47.4186 109.573 47.2266 109.597 47.0286 109.645C46.8306 109.693 46.6476 109.759 46.4796 109.843C46.2756 109.729 46.0896 109.558 45.9216 109.33C45.7596 109.096 45.6546 108.865 45.6066 108.637C45.9606 108.487 46.3416 108.364 46.7496 108.268C47.1636 108.166 47.6556 108.115 48.2256 108.115C48.8796 108.115 49.4736 108.238 50.0076 108.484C50.5476 108.73 50.9766 109.099 51.2946 109.591C51.6126 110.083 51.7716 110.701 51.7716 111.445C51.7716 112.069 51.6546 112.618 51.4206 113.092C51.1926 113.566 50.8806 113.962 50.4846 114.28C50.0886 114.598 49.6386 114.838 49.1346 115C48.6366 115.162 48.1206 115.243 47.5866 115.243C46.7946 115.243 46.0806 115.126 45.4446 114.892C44.8146 114.652 44.2986 114.358 43.8966 114.01C43.9506 113.746 44.0646 113.479 44.2386 113.209C44.4186 112.939 44.6256 112.714 44.8596 112.534C45.1956 112.786 45.5646 112.999 45.9666 113.173C46.3746 113.347 46.8186 113.434 47.2986 113.434C47.7186 113.434 48.0876 113.353 48.4056 113.191C48.7296 113.029 48.9846 112.795 49.1706 112.489C49.3626 112.183 49.4586 111.808 49.4586 111.364ZM49.1886 107.62C48.9666 107.848 48.7116 108.058 48.4236 108.25C48.1356 108.442 47.8506 108.613 47.5686 108.763C47.2926 108.907 47.0556 109.024 46.8576 109.114L45.6066 108.637L47.6316 106.576C47.7276 106.468 47.8506 106.342 48.0006 106.198C48.1566 106.048 48.3126 105.901 48.4686 105.757C48.6246 105.613 48.7536 105.499 48.8556 105.415L48.7836 105.325C48.5796 105.379 48.2916 105.424 47.9196 105.46C47.5536 105.496 47.1936 105.514 46.8396 105.514H44.4366C44.3766 105.346 44.3376 105.19 44.3196 105.046C44.3076 104.902 44.3016 104.779 44.3016 104.677C44.3016 104.521 44.3136 104.35 44.3376 104.164C44.3616 103.978 44.4126 103.792 44.4906 103.606H50.8626C51.0306 103.924 51.1476 104.194 51.2136 104.416C51.2856 104.632 51.3216 104.818 51.3216 104.974C51.3216 105.136 51.2886 105.295 51.2226 105.451C51.1566 105.607 51.0426 105.769 50.8806 105.937L49.1886 107.62ZM58.7154 105.973C59.1894 105.973 59.5494 106.135 59.7954 106.459C60.0414 106.783 60.1644 107.23 60.1644 107.8V117.493C60.1644 117.991 60.0744 118.345 59.8944 118.555C59.7204 118.771 59.4024 118.879 58.9404 118.879H58.0854L57.9594 118.762V106.099L58.0854 105.973H58.7154ZM65.5824 110.428C65.5824 111.484 65.4174 112.363 65.0874 113.065C64.7574 113.761 64.3224 114.286 63.7824 114.64C63.2484 114.988 62.6754 115.162 62.0634 115.162C61.4694 115.162 60.9324 115.039 60.4524 114.793C59.9724 114.547 59.5254 114.286 59.1114 114.01L59.4264 112.327C59.7684 112.603 60.1374 112.858 60.5334 113.092C60.9354 113.32 61.3314 113.434 61.7214 113.434C62.0334 113.434 62.3064 113.32 62.5404 113.092C62.7804 112.864 62.9664 112.528 63.0984 112.084C63.2304 111.634 63.2964 111.079 63.2964 110.419C63.2964 109.765 63.2304 109.237 63.0984 108.835C62.9724 108.427 62.8014 108.13 62.5854 107.944C62.3754 107.752 62.1414 107.656 61.8834 107.656C61.6254 107.656 61.3464 107.728 61.0464 107.872C60.7464 108.016 60.4614 108.256 60.1914 108.592C59.9274 108.928 59.7174 109.387 59.5614 109.969L59.0844 108.502C59.1744 108.064 59.3754 107.641 59.6874 107.233C59.9994 106.825 60.3894 106.489 60.8574 106.225C61.3314 105.961 61.8564 105.829 62.4324 105.829C63.1344 105.829 63.7194 106.024 64.1874 106.414C64.6554 106.804 65.0034 107.344 65.2314 108.034C65.4654 108.724 65.5824 109.522 65.5824 110.428ZM69.7441 115C69.4321 115.054 69.0661 115.081 68.6461 115.081C68.2681 115.081 67.9051 115.054 67.5571 115V101.878L67.6831 101.761H68.5381C69.0001 101.761 69.3151 101.869 69.4831 102.085C69.6571 102.295 69.7441 102.649 69.7441 103.147V115ZM74.8561 112.957C74.8561 113.287 74.8831 113.599 74.9371 113.893C74.9911 114.181 75.0841 114.433 75.2161 114.649C75.0541 114.787 74.8501 114.901 74.6041 114.991C74.3581 115.081 74.0971 115.126 73.8211 115.126C73.3771 115.126 73.0651 115.006 72.8851 114.766C72.7111 114.526 72.6241 114.181 72.6241 113.731V109.447C72.6241 108.919 72.5551 108.535 72.4171 108.295C72.2851 108.055 72.0271 107.935 71.6431 107.935C71.3851 107.935 71.1001 108.001 70.7881 108.133C70.4821 108.259 70.1881 108.448 69.9061 108.7C69.6241 108.946 69.3901 109.249 69.2041 109.609V107.557C69.6061 107.113 70.0801 106.729 70.6261 106.405C71.1781 106.081 71.7751 105.919 72.4171 105.919C72.9751 105.919 73.4341 106.054 73.7941 106.324C74.1541 106.588 74.4211 106.951 74.5951 107.413C74.7691 107.869 74.8561 108.391 74.8561 108.979V112.957ZM84.7551 110.536C84.7551 111.472 84.6051 112.294 84.3051 113.002C84.0051 113.71 83.5581 114.262 82.9641 114.658C82.3701 115.048 81.6351 115.243 80.7591 115.243C79.8831 115.243 79.1481 115.045 78.5541 114.649C77.9661 114.253 77.5221 113.701 77.2221 112.993C76.9221 112.285 76.7721 111.466 76.7721 110.536C76.7721 109.6 76.9221 108.781 77.2221 108.079C77.5281 107.371 77.9751 106.819 78.5631 106.423C79.1571 106.027 79.8891 105.829 80.7591 105.829C81.6411 105.829 82.3791 106.03 82.9731 106.432C83.5671 106.828 84.0111 107.38 84.3051 108.088C84.6051 108.79 84.7551 109.606 84.7551 110.536ZM79.0761 110.536C79.0761 111.07 79.1211 111.568 79.2111 112.03C79.3011 112.486 79.4691 112.855 79.7151 113.137C79.9611 113.413 80.3121 113.551 80.7681 113.551C81.2301 113.551 81.5811 113.413 81.8211 113.137C82.0611 112.855 82.2261 112.486 82.3161 112.03C82.4121 111.568 82.4601 111.07 82.4601 110.536C82.4601 110.008 82.4121 109.513 82.3161 109.051C82.2261 108.589 82.0611 108.217 81.8211 107.935C81.5811 107.653 81.2301 107.512 80.7681 107.512C80.3121 107.512 79.9611 107.653 79.7151 107.935C79.4691 108.217 79.3011 108.589 79.2111 109.051C79.1211 109.513 79.0761 110.008 79.0761 110.536ZM86.9628 104.722C86.9628 104.224 87.0498 103.87 87.2238 103.66C87.4038 103.444 87.7218 103.336 88.1778 103.336H89.0328L89.1498 103.453V112.543C89.1498 112.789 89.2068 112.984 89.3208 113.128C89.4408 113.272 89.6388 113.344 89.9148 113.344H91.0668C91.1808 113.686 91.2378 114.052 91.2378 114.442C91.2378 114.52 91.2348 114.604 91.2288 114.694C91.2288 114.778 91.2168 114.859 91.1928 114.937C90.8808 114.973 90.5358 115.006 90.1578 115.036C89.7798 115.066 89.4138 115.081 89.0598 115.081C88.3638 115.081 87.8388 114.91 87.4848 114.568C87.1368 114.22 86.9628 113.689 86.9628 112.975V104.722ZM91.3458 106.054C91.4118 106.33 91.4448 106.597 91.4448 106.855C91.4448 107.143 91.4118 107.419 91.3458 107.683L88.2318 107.629L85.6128 107.683C85.5468 107.419 85.5138 107.143 85.5138 106.855C85.5138 106.597 85.5468 106.33 85.6128 106.054L88.2768 106.108L91.3458 106.054ZM100.364 110.536C100.364 111.472 100.214 112.294 99.9145 113.002C99.6145 113.71 99.1675 114.262 98.5735 114.658C97.9795 115.048 97.2445 115.243 96.3685 115.243C95.4925 115.243 94.7575 115.045 94.1635 114.649C93.5755 114.253 93.1315 113.701 92.8315 112.993C92.5315 112.285 92.3815 111.466 92.3815 110.536C92.3815 109.6 92.5315 108.781 92.8315 108.079C93.1375 107.371 93.5845 106.819 94.1725 106.423C94.7665 106.027 95.4985 105.829 96.3685 105.829C97.2505 105.829 97.9885 106.03 98.5825 106.432C99.1765 106.828 99.6205 107.38 99.9145 108.088C100.214 108.79 100.364 109.606 100.364 110.536ZM94.6855 110.536C94.6855 111.07 94.7305 111.568 94.8205 112.03C94.9105 112.486 95.0785 112.855 95.3245 113.137C95.5705 113.413 95.9215 113.551 96.3775 113.551C96.8395 113.551 97.1905 113.413 97.4305 113.137C97.6705 112.855 97.8355 112.486 97.9255 112.03C98.0215 111.568 98.0695 111.07 98.0695 110.536C98.0695 110.008 98.0215 109.513 97.9255 109.051C97.8355 108.589 97.6705 108.217 97.4305 107.935C97.1905 107.653 96.8395 107.512 96.3775 107.512C95.9215 107.512 95.5705 107.653 95.3245 107.935C95.0785 108.217 94.9105 108.589 94.8205 109.051C94.7305 109.513 94.6855 110.008 94.6855 110.536ZM101.535 114.361C101.547 114.109 101.619 113.833 101.751 113.533C101.883 113.227 102.039 112.99 102.219 112.822C102.603 113.026 103.008 113.206 103.434 113.362C103.866 113.518 104.298 113.596 104.73 113.596C105.162 113.596 105.498 113.509 105.738 113.335C105.984 113.161 106.11 112.939 106.116 112.669C106.116 112.447 106.032 112.246 105.864 112.066C105.702 111.886 105.45 111.733 105.108 111.607L104.082 111.229C103.668 111.079 103.287 110.89 102.939 110.662C102.597 110.428 102.321 110.146 102.111 109.816C101.907 109.48 101.805 109.078 101.805 108.61C101.805 108.04 101.946 107.548 102.228 107.134C102.51 106.714 102.9 106.393 103.398 106.171C103.896 105.943 104.469 105.829 105.117 105.829C105.633 105.829 106.182 105.898 106.764 106.036C107.346 106.174 107.823 106.336 108.195 106.522C108.207 106.786 108.153 107.08 108.033 107.404C107.913 107.728 107.757 107.965 107.565 108.115C107.229 107.965 106.845 107.824 106.413 107.692C105.987 107.56 105.555 107.494 105.117 107.494C104.787 107.494 104.523 107.575 104.325 107.737C104.133 107.893 104.037 108.097 104.037 108.349C104.037 108.565 104.115 108.745 104.271 108.889C104.427 109.027 104.667 109.156 104.991 109.276L106.098 109.69C106.776 109.93 107.334 110.272 107.772 110.716C108.21 111.16 108.429 111.742 108.429 112.462C108.429 113.326 108.096 114.007 107.43 114.505C106.77 114.997 105.879 115.243 104.757 115.243C104.121 115.243 103.524 115.156 102.966 114.982C102.414 114.808 101.937 114.601 101.535 114.361Z" fill="white"/>
<path d="M89.9308 43.979C88.6575 40.5951 85.3905 38.1875 81.5625 38.1875C80.6811 38.1875 79.83 38.3154 79.0243 38.5532C76.8435 35.0319 72.9454 32.6875 68.5 32.6875C61.757 32.6875 56.2708 38.083 56.1277 44.7916C53.6596 46.2203 52 48.8891 52 51.9375C52 56.4915 55.696 60.1875 60.25 60.1875H68.5V57.4375H60.2459C57.2168 57.4375 54.75 54.9749 54.75 51.9375C54.75 49.3346 56.5609 47.1497 58.9946 46.5805C58.9149 46.0869 58.875 45.5795 58.875 45.0625C58.875 39.7467 63.1842 35.4375 68.5 35.4375C72.8477 35.4375 76.5217 38.3209 77.7153 42.2781C78.7726 41.438 80.1064 40.9375 81.5625 40.9375C84.747 40.9375 87.3719 43.3438 87.7129 46.4375H87.7541C90.7832 46.4375 93.25 48.9001 93.25 51.9375C93.25 54.9694 90.7901 57.4375 87.7541 57.4375H79.5V60.1875H87.75C92.304 60.1875 96 56.4846 96 51.9375C96 48.1356 93.4287 44.9346 89.9308 43.979Z" fill="white"/>
<path d="M74 45.0625L67.125 53.3125H71.25V64.3125H76.75V53.3125H80.875L74 45.0625Z" fill="white"/>
</svg>
