<?xml version="1.0" encoding="UTF-8"?>
<svg id="Calque_1" data-name="Calque 1" xmlns="http://www.w3.org/2000/svg" viewBox="0 0 969 341.84">
  <defs>
    <style>
      .cls-1 {
        fill: #fff;
      }
    </style>
  </defs>
  <g>
    <path class="cls-1" d="M96.89,237.3c2.22-9.76,4.5-19.66,6.87-29.71,7.1-29.56,15.74-58.6,25.94-87.14,10.2-28.53,20.91-57.13,32.15-85.81,1.48-3.25,2.95-6.43,4.43-9.53,1.48-3.1,3.1-5.99,4.88-8.65,2.06-4.73,4.73-8.43,7.98-11.09,3.25-3.25,6.5-5.02,9.76-5.32,3.25-.29,6.21,.6,8.87,2.66,6.21,4.73,7.68,11.38,4.43,19.96-1.48,3.55-3.03,7.03-4.66,10.42-1.63,3.4-3.03,6.87-4.21,10.42-22.17,65.34-39.47,131.56-51.88,198.67-1.77,9.46-3.48,18.63-5.1,27.49-1.63,8.87-3.62,17.89-5.99,27.05-1.77,8.87-5.03,17-9.76,24.39-5.62,10.94-13.46,17.59-23.5,19.96-10.05,2.36-19.81-.73-29.27-9.31-4.14-3.55-7.91-7.46-11.31-11.75-3.4-4.28-6.58-8.79-9.53-13.53-6.8-11.53-12.27-23.87-16.41-37.03-4.14-13.15-7.84-26.39-11.09-39.69-6.8-28.38-11.61-56.91-14.41-85.59C2.29,115.5,.59,86.68,0,57.7c0-3.25,.15-6.58,.44-9.98,.29-3.4,.59-6.72,.89-9.98,.89-6.21,2.95-11.23,6.21-15.08,3.25-3.84,7.54-5.91,12.86-6.21,5.32-.59,9.98,.6,13.97,3.55,3.99,2.96,6.87,7.84,8.65,14.63,1.48,5.03,2.73,10.35,3.77,15.96,1.03,5.62,2,11.09,2.88,16.41,4.73,26.61,9.24,52.99,13.53,79.16,4.28,26.16,8.79,52.55,13.53,79.16,1.48,7.1,3.25,14.05,5.32,20.84,2.06,6.8,3.84,13.9,5.32,21.29h2.66c2.36-10.34,4.66-20.4,6.87-30.15Z"/>
    <path class="cls-1" d="M283.41,155.09c-.6,2.07-1.41,3.92-2.44,5.54-1.04,1.63-1.85,3.48-2.44,5.54-5.03,11.53-9.24,23.14-12.64,34.81-3.4,11.68-5.84,23.72-7.32,36.14-.6,7.1-.44,14.12,.44,21.06,.89,6.95,1.62,13.82,2.22,20.62,.29,3.85,.81,7.54,1.55,11.09,.73,3.55,1.25,6.95,1.55,10.2,0,3.85-.08,7.54-.22,11.09-.15,3.55-.67,7.25-1.55,11.09-3.26,10.94-10.64,17.29-22.17,19.07-13.01,1.77-22.62-2.51-28.82-12.86-3.55-5.61-5.76-11.82-6.65-18.63-5.32-23.95-9.31-47.89-11.97-71.84-2.66-23.95-3.1-48.04-1.33-72.28,.59-10.34,1.7-20.54,3.33-30.6,1.62-10.05,3.17-20.25,4.66-30.6,.59-2.06,1.11-4.06,1.55-5.99,.44-1.92,1.11-3.77,2-5.54,5.02-12.42,13.59-17.74,25.72-15.96,5.32,.6,9.83,2.81,13.53,6.65,3.69,3.85,5.99,8.87,6.87,15.08,.59,2.96,.89,5.76,.89,8.43v8.43c.59,1.77,.96,3.55,1.11,5.32,.15,1.77,.22,4.14,.22,7.1,1.77-1.48,3.1-2.88,3.99-4.21s1.77-2.58,2.66-3.77c3.25-2.66,6.21-5.61,8.87-8.87,2.66-3.25,5.61-6.06,8.87-8.43,7.39-5.32,15.08-7.24,23.06-5.76,7.98,1.48,14.34,6.21,19.07,14.19,4.43,7.69,6.94,15.96,7.54,24.83,1.48,10.64,1.62,21.22,.44,31.71-1.18,10.5-2.96,20.92-5.32,31.26-.6,1.77-1.18,3.48-1.77,5.1-.6,1.63-1.48,3.18-2.66,4.66-3.85,5.03-8.72,7.1-14.63,6.21-5.92-.89-10.05-4.14-12.42-9.76-.89-2.36-1.48-4.88-1.77-7.54-.3-2.66-.44-5.17-.44-7.54-.3-5.91-.44-11.67-.44-17.29v-17.29c-.6,0-1.11-.07-1.55-.22-.44-.15-.96-.22-1.55-.22Z"/>
    <path class="cls-1" d="M507.01,189.08c-.6,23.06-3.85,43.9-9.76,62.53-5.92,18.63-15.52,36.07-28.82,52.33-4.73,5.03-9.76,9.53-15.08,13.53-5.32,3.99-11.09,7.47-17.29,10.42-26.02,11.53-49.82,7.84-71.4-11.09-7.69-6.5-13.97-13.89-18.85-22.17-4.88-8.27-8.5-17.29-10.86-27.05-11.53-42.27-7.39-82.93,12.42-121.95,2.66-5.61,6.21-11.01,10.64-16.19,4.43-5.17,8.87-10.12,13.3-14.86,7.68-7.68,15.52-11.75,23.5-12.2,7.98-.44,16.7,2,26.16,7.32,1.48,.6,3.1,1.04,4.88,1.33,1.77,.3,3.55,.15,5.32-.44,10.64-2.06,19.96-2.22,27.94-.44s14.86,4.88,20.62,9.31c5.76,4.43,10.49,9.98,14.19,16.63,3.69,6.65,6.58,13.82,8.65,21.51,1.48,6.21,2.51,12.13,3.1,17.74,.59,5.62,1.03,10.2,1.33,13.75Zm-106.43,90.46c5.61,12.13,14.34,14.79,26.16,7.98,5.61-2.95,11.23-7.39,16.85-13.3,12.42-13.59,21.06-28.45,25.94-44.57,4.88-16.11,6.13-33.33,3.77-51.66-.6-4.43-1.63-8.87-3.1-13.3-1.48-4.43-3.1-8.72-4.88-12.86-2.37-5.02-5.03-8.27-7.98-9.76-2.96-1.48-7.25-1.62-12.86-.44-15.08,1.77-26.91,7.98-35.48,18.63-8.58,10.64-14.34,23.06-17.29,37.25-2.96,14.19-3.55,28.75-1.77,43.68,1.77,14.93,5.32,27.72,10.64,38.36Z"/>
    <path class="cls-1" d="M684.53,165.89c-.66,25.52-4.26,48.59-10.8,69.2-6.55,20.61-17.18,39.92-31.9,57.91-5.24,5.57-10.8,10.55-16.69,14.97-5.89,4.42-12.27,8.27-19.14,11.53-28.8,12.76-55.14,8.67-79.02-12.27-8.51-7.19-15.46-15.38-20.86-24.54-5.4-9.16-9.41-19.14-12.02-29.94-12.76-46.79-8.18-91.78,13.74-134.97,2.94-6.21,6.87-12.19,11.78-17.91,4.91-5.72,9.82-11.2,14.72-16.44,8.5-8.5,17.18-13.01,26.01-13.5,8.83-.49,18.48,2.21,28.96,8.1,1.63,.66,3.44,1.15,5.4,1.47,1.96,.33,3.93,.17,5.89-.49,11.78-2.29,22.09-2.45,30.92-.49,8.83,1.96,16.44,5.4,22.82,10.31s11.61,11.04,15.71,18.4c4.09,7.36,7.28,15.3,9.57,23.8,1.63,6.87,2.78,13.42,3.44,19.63,.65,6.22,1.14,11.29,1.47,15.21Zm-117.79,100.12c6.21,13.42,15.87,16.36,28.96,8.83,6.21-3.27,12.43-8.17,18.65-14.72,13.74-15.05,23.31-31.49,28.71-49.32,5.4-17.83,6.79-36.89,4.17-57.18-.66-4.91-1.8-9.82-3.44-14.72-1.64-4.91-3.44-9.65-5.4-14.23-2.62-5.56-5.57-9.16-8.83-10.8-3.27-1.63-8.02-1.79-14.23-.49-16.69,1.96-29.78,8.83-39.26,20.61-9.49,11.78-15.87,25.52-19.14,41.23-3.27,15.7-3.93,31.82-1.96,48.34,1.96,16.53,5.89,30.67,11.78,42.45Z"/>
    <path class="cls-1" d="M763.34,144c3.25-3.25,6.43-6.58,9.53-9.98,3.1-3.4,6.28-6.72,9.53-9.98,1.77-1.48,3.62-3.17,5.54-5.1s4.06-3.62,6.43-5.1c7.68-4.43,15.22-5.32,22.62-2.66,7.39,2.66,12.56,8.28,15.52,16.85,2.06,5.92,3.47,11.97,4.21,18.18,.73,6.21,1.4,12.27,2,18.18,.89,7.1,1.48,14.19,1.77,21.29,.29,7.09,1.18,14.34,2.66,21.73,.89-1.77,1.62-3.4,2.22-4.88,.59-1.48,1.18-3.1,1.77-4.88,4.43-13.89,9.38-27.49,14.86-40.8,5.47-13.3,11.9-26.31,19.29-39.02,3.55-6.5,7.46-12.86,11.75-19.07,4.28-6.21,8.65-12.42,13.08-18.63,3.55-5.32,7.76-8.94,12.64-10.86,4.88-1.92,9.68-2.44,14.41-1.55,4.73,.89,9.09,3.1,13.08,6.65s6.87,8.28,8.65,14.19c3.55,10.35,5.32,21.14,5.32,32.37-.3,17.45-.74,34.81-1.33,52.11-.6,17.29-1.33,34.67-2.22,52.11-.6,11.83-.44,23.28,.44,34.37s3.99,21.95,9.31,32.59c4.43,9.17,3.1,17.29-3.99,24.39-6.21,7.1-14.49,9.17-24.83,6.21-12.71-4.43-22.47-12.71-29.27-24.83-6.21-10.34-11.24-21.29-15.08-32.82-3.85-11.53-6.06-23.5-6.65-35.92-.3-9.46,.07-18.85,1.11-28.16,1.03-9.31,2-18.55,2.88-27.72,0-2.06,.15-4.06,.44-5.99,.29-1.92,.15-4.06-.44-6.43-.89,1.18-1.7,2.22-2.44,3.1-.74,.89-1.41,2.07-2,3.55-3.55,8.58-6.95,17.29-10.2,26.16-3.26,8.87-6.51,17.74-9.76,26.61-1.48,3.26-2.81,6.73-3.99,10.42-1.18,3.7-2.66,7.17-4.43,10.42-2.07,4.14-4.73,7.61-7.98,10.42-3.26,2.81-7.39,4.07-12.42,3.77-4.73,0-8.8-1.48-12.2-4.43-3.4-2.95-5.84-6.5-7.32-10.64-2.37-6.21-4.37-12.49-5.99-18.85-1.63-6.35-3.18-12.93-4.66-19.73-1.48-6.5-2.59-13.15-3.33-19.96-.74-6.8-1.55-14.19-2.44-22.17-1.48,2.37-2.81,4.21-3.99,5.54-1.18,1.33-2.22,2.74-3.1,4.21-13.6,19.81-22.91,41.1-27.94,63.86-1.48,5.92-1.93,11.75-1.33,17.52,.59,5.76,1.03,11.61,1.33,17.52,0,3.26,.22,6.8,.67,10.64,.44,3.85,.51,7.39,.22,10.64-.6,8.28-3.18,15.15-7.76,20.62-4.59,5.47-10.28,8.65-17.07,9.53-16.26,2.37-27.35-4.88-33.26-21.73-6.8-19.51-11.38-39.25-13.75-59.2-2.37-19.96-2.81-40.13-1.33-60.53,.89-11.82,2.14-23.65,3.77-35.48,1.62-11.82,4.66-23.21,9.09-34.15,2.66-9.16,6.65-18.03,11.97-26.61,4.43-6.21,9.6-10.64,15.52-13.3,7.39-3.25,14.11-2.88,20.18,1.11,6.06,3.99,9.53,10.13,10.42,18.4,0,3.26-.22,6.36-.67,9.31-.44,2.96-.82,5.92-1.11,8.87-.3,5.92-.67,11.97-1.11,18.18s-.82,12.27-1.11,18.18c.89,.89,1.62,1.33,2.22,1.33Z"/>
  </g>
  <g id="UqdjrD">
    <g>
      <path class="cls-1" d="M466.48,203.6c.96,18.36-4.4,33.21-13.89,47.17-3.73-8.39-4.03-15.49-6.12-23.96-.92-3.72,1.82-12.71,4.44-14.84,5.34-4.33,9.22-5.66,15.57-8.37Z"/>
      <path class="cls-1" d="M401.91,198.25c5.81,4.1,11,7.42,15.92,11.36,3.99,3.2,4.3,12.13,.71,17.29-4.34,6.24-8.9,12.17-14.3,19.5-6.08-14.64-6.77-29.73-2.34-48.15Z"/>
      <path class="cls-1" d="M437.83,262.11c-4.86,7.18-12.11,13.36-17.66,13.35-5.56,0-8.57-4.78-10.13-11.33,3.96-7.91,8.05-21.98,12.56-27.73,2.15-2.74,8.39-2.88,10.51-.21,4.54,5.73,3.37,16.39,4.72,25.92Z"/>
      <path class="cls-1" d="M407.62,180.9c5.99-15.44,14.2-24.6,26.64-28.32,0,10.27,.61,19.7-.2,28.85-.6,6.77-4.24,10.63-9.18,8.38-5.61-2.55-11.11-5.7-17.26-8.91Z"/>
      <path class="cls-1" d="M449.18,152.83c11.73,4.29,13.73,15.59,18.39,31.98-6.66,2.48-7.94,5.03-14.07,5.38-2.66,.15-7.02-6.03-7.18-10.1-.32-8.4,1.67-17.31,2.86-27.26Z"/>
      <path class="cls-1" d="M440.88,196.98c2.59,3.3,3.34,9.93,2.68,14.8-.93,6.81-5.35,10.83-10.2,9.56-4.78-1.25-7.15-6.55-4.75-13.29,1.66-4.66,5.09-10.22,8.84-11.94,1.2-.55,2.61-.18,3.43,.87Zm-2.54,4.33c-3.3-.56-5.14,2.21-6.17,6.85-.85,3.82-.08,6.9,1.8,7.67,2.04,.84,6.7,.35,7.87-4.97,.8-3.64-.32-9.02-3.5-9.56Z"/>
    </g>
  </g>
  <g id="UqdjrD-2" data-name="UqdjrD">
    <g>
      <path class="cls-1" d="M637.89,184.18c1.06,20.32-4.87,36.75-15.37,52.21-4.13-9.28-4.46-17.15-6.78-26.52-1.02-4.11,2.01-14.06,4.92-16.42,5.91-4.8,10.2-6.26,17.23-9.27Z"/>
      <path class="cls-1" d="M566.43,178.25c6.43,4.54,12.17,8.21,17.62,12.57,4.42,3.54,4.76,13.42,.78,19.14-4.81,6.91-9.85,13.47-15.82,21.58-6.73-16.2-7.49-32.9-2.59-53.28Z"/>
      <path class="cls-1" d="M606.19,248.93c-5.38,7.94-13.4,14.78-19.54,14.78-6.16,0-9.49-5.29-11.21-12.54,4.38-8.76,8.91-24.33,13.9-30.69,2.38-3.03,9.29-3.19,11.63-.23,5.02,6.34,3.73,18.14,5.22,28.69Z"/>
      <path class="cls-1" d="M572.75,159.05c6.63-17.09,15.71-27.22,29.49-31.34,0,11.36,.67,21.8-.22,31.93-.66,7.49-4.69,11.76-10.16,9.28-6.21-2.82-12.29-6.31-19.11-9.86Z"/>
      <path class="cls-1" d="M618.75,127.99c12.98,4.75,15.2,17.26,20.35,35.39-7.37,2.74-8.79,5.56-15.57,5.96-2.95,.17-7.77-6.67-7.94-11.17-.35-9.3,1.85-19.16,3.17-30.17Z"/>
      <path class="cls-1" d="M609.56,176.84c2.87,3.65,3.7,10.99,2.96,16.38-1.03,7.54-5.92,11.98-11.29,10.58-5.29-1.38-7.92-7.24-5.26-14.71,1.84-5.16,5.64-11.31,9.78-13.21,1.33-.61,2.89-.2,3.8,.96Zm-2.81,4.79c-3.66-.62-5.68,2.44-6.83,7.59-.94,4.22-.09,7.64,1.99,8.49,2.26,.93,7.42,.38,8.71-5.5,.89-4.03-.35-9.98-3.88-10.58Z"/>
    </g>
  </g>
</svg>