<svg width="47" height="42" viewBox="0 0 47 42" fill="none" xmlns="http://www.w3.org/2000/svg">
<path d="M14.4137 0H11.531V8.64824H14.4137V0ZM28.8275 2.88275H17.2965V5.76549H28.8275V2.88275ZM40.3585 2.88275H37.4757V5.76549H40.3585C41.9497 5.76549 43.2412 7.05696 43.2412 8.64824V36.0343C43.2412 37.6256 41.9497 38.9171 40.3585 38.9171H5.76549C4.17422 38.9171 2.88275 37.6256 2.88275 36.0343V8.64824C2.88275 7.05696 4.17422 5.76549 5.76549 5.76549H8.64824V2.88275H5.76549C2.5815 2.88275 0 5.46425 0 8.64824V36.0343C0 39.2183 2.5815 41.7998 5.76549 41.7998H40.3585C43.5424 41.7998 46.1239 39.2183 46.1239 36.0343V8.64824C46.1239 5.46425 43.5424 2.88275 40.3585 2.88275ZM34.593 0H31.7102V8.64824H34.593V0Z" fill="white"/>
<path d="M11.5309 14.4138C9.93966 14.4138 8.64819 15.7053 8.64819 17.2966C8.64819 18.8878 9.93966 20.1793 11.5309 20.1793C13.1222 20.1793 14.4137 18.8878 14.4137 17.2966C14.4137 15.7053 13.1237 14.4138 11.5309 14.4138ZM23.0619 14.4138C21.4707 14.4138 20.1792 15.7053 20.1792 17.2966C20.1792 18.8878 21.4707 20.1793 23.0619 20.1793C24.6532 20.1793 25.9447 18.8878 25.9447 17.2966C25.9447 15.7053 24.6546 14.4138 23.0619 14.4138ZM34.5929 20.1793C36.1842 20.1793 37.4757 18.8878 37.4757 17.2966C37.4757 15.7053 36.1842 14.4138 34.5929 14.4138C33.0016 14.4138 31.7102 15.7053 31.7102 17.2966C31.7102 18.8878 33.0016 20.1793 34.5929 20.1793ZM11.5309 25.9448C9.93966 25.9448 8.64819 27.2363 8.64819 28.8276C8.64819 30.4188 9.93966 31.7103 11.5309 31.7103C13.1222 31.7103 14.4137 30.4188 14.4137 28.8276C14.4137 27.2363 13.1237 25.9448 11.5309 25.9448ZM23.0619 25.9448C21.4707 25.9448 20.1792 27.2363 20.1792 28.8276C20.1792 30.4188 21.4707 31.7103 23.0619 31.7103C24.6532 31.7103 25.9447 30.4188 25.9447 28.8276C25.9447 27.2363 24.6546 25.9448 23.0619 25.9448ZM34.5929 25.9448C33.0016 25.9448 31.7102 27.2363 31.7102 28.8276C31.7102 30.4188 33.0016 31.7103 34.5929 31.7103C36.1842 31.7103 37.4757 30.4188 37.4757 28.8276C37.4757 27.2363 36.1856 25.9448 34.5929 25.9448Z" fill="white"/>
</svg>
