<svg width="36" height="43" viewBox="0 0 36 43" fill="none" xmlns="http://www.w3.org/2000/svg">
<path d="M17.815 42.2123C17.5159 42.2137 17.2195 42.1562 16.9427 42.0429C16.6659 41.9297 16.4141 41.7631 16.2018 41.5525L5.35472 30.7055C3.64208 29.0023 2.2864 26.9746 1.36703 24.741C0.447663 22.5074 -0.0169221 20.1129 0.000470903 17.6976C-0.00690591 15.3591 0.452343 13.0426 1.35133 10.8838C2.25031 8.72503 3.57096 6.76727 5.23595 5.12519C8.59868 1.83953 13.1135 0 17.815 0C22.5164 0 27.0312 1.83953 30.394 5.12519C32.059 6.76727 33.3796 8.72503 34.2786 10.8838C35.1776 13.0426 35.6368 15.3591 35.6295 17.6976C35.6469 20.1129 35.1823 22.5074 34.2629 24.741C33.3435 26.9746 31.9879 29.0023 30.2752 30.7055L19.4282 41.5327C19.2174 41.7469 18.9664 41.9172 18.6895 42.0338C18.4126 42.1504 18.1154 42.2111 17.815 42.2123ZM17.815 1.96477C13.6288 1.95513 9.60784 3.59696 6.62482 6.53386C5.147 7.9929 3.97502 9.73203 3.17745 11.6495C2.37988 13.5669 1.97274 15.6242 1.97986 17.7009C1.96402 19.8551 2.37805 21.9909 3.19772 23.9831C4.01739 25.9754 5.22623 27.7841 6.75348 29.3034L17.5972 40.1307C17.6252 40.1597 17.6588 40.1828 17.6959 40.1986C17.7331 40.2143 17.773 40.2225 17.8133 40.2225C17.8537 40.2225 17.8936 40.2143 17.9307 40.1986C17.9678 40.1828 18.0014 40.1597 18.0294 40.1307L28.8764 29.3034C30.4037 27.7841 31.6125 25.9754 32.4322 23.9831C33.2519 21.9909 33.6659 19.8551 33.6501 17.7009C33.6572 15.6242 33.25 13.5669 32.4525 11.6495C31.6549 9.73203 30.4829 7.9929 29.0051 6.53386C26.0221 3.59696 22.0011 1.95513 17.815 1.96477Z" fill="white"/>
<path d="M17.8149 26.8425C15.7356 26.8415 13.721 26.1198 12.1141 24.8003C10.5072 23.4807 9.40733 21.645 9.00191 19.6056C8.59648 17.5663 8.91052 15.4494 9.89055 13.6156C10.8706 11.7818 12.456 10.3444 14.3768 9.54821C16.2976 8.75202 18.435 8.64629 20.425 9.24901C22.415 9.85173 24.1345 11.1256 25.2907 12.8538C26.447 14.5819 26.9684 16.6574 26.7662 18.7269C26.564 20.7963 25.6508 22.7316 24.1819 24.2033C23.3467 25.0407 22.3542 25.7049 21.2616 26.1578C20.169 26.6107 18.9977 26.8434 17.8149 26.8425ZM17.8149 10.8457C16.1926 10.8483 14.6214 11.4132 13.3688 12.4442C12.1162 13.4752 11.2598 14.9085 10.9454 16.5C10.631 18.0916 10.878 19.7429 11.6444 21.1728C12.4108 22.6026 13.6492 23.7226 15.1487 24.3418C16.6481 24.9611 18.3159 25.0415 19.8679 24.5692C21.4199 24.0969 22.7603 23.1012 23.6606 21.7516C24.5609 20.402 24.9655 18.7821 24.8055 17.1677C24.6455 15.5533 23.9308 14.0443 22.7832 12.8977C22.1307 12.2456 21.3561 11.7287 20.5035 11.3766C19.651 11.0245 18.7373 10.8441 17.8149 10.8457Z" fill="white"/>
</svg>
