<svg width="54" height="36" viewBox="0 0 54 36" fill="none" xmlns="http://www.w3.org/2000/svg">
<path d="M29.2046 31.0468H12.4828C12.079 31.0468 11.7513 30.6752 11.7513 30.2172C11.7513 29.7593 12.079 29.3877 12.4828 29.3877H29.2046C29.6084 29.3877 29.936 29.7593 29.936 30.2172C29.936 30.6752 29.6084 31.0468 29.2046 31.0468Z" fill="white"/>
<path d="M8.5053 35.5595C5.90728 35.5595 3.79346 33.1638 3.79346 30.2155C3.79346 27.2673 5.90581 24.8716 8.5053 24.8716C11.1019 24.8716 13.2157 27.2673 13.2157 30.2155C13.2157 33.1638 11.1019 35.5595 8.5053 35.5595ZM8.5053 26.5323C6.71331 26.5323 5.25631 28.1848 5.25631 30.2172C5.25631 32.2496 6.71331 33.9021 8.5053 33.9021C10.2958 33.9021 11.7528 32.2496 11.7528 30.2172C11.7528 28.1848 10.2944 26.5323 8.5053 26.5323Z" fill="white"/>
<path d="M33.1851 35.5595C30.5871 35.5595 28.4733 33.1638 28.4733 30.2155C28.4733 27.2673 30.5856 24.8716 33.1851 24.8716C35.7846 24.8716 37.8969 27.2673 37.8969 30.2155C37.8969 33.1638 35.7831 35.5595 33.1851 35.5595ZM33.1851 26.5323C31.3931 26.5323 29.9361 28.1848 29.9361 30.2172C29.9361 32.2496 31.3931 33.9021 33.1851 33.9021C34.9771 33.9021 36.4341 32.2496 36.4341 30.2172C36.4341 28.1848 34.9756 26.5323 33.1851 26.5323Z" fill="white"/>
<path d="M26.9425 30.7825H14.6004C14.3025 30.7825 14.0607 30.4578 14.0607 30.0576C14.0607 29.6575 14.3025 29.3328 14.6004 29.3328H26.9425C27.2404 29.3328 27.4822 29.6575 27.4822 30.0576C27.4822 30.4578 27.2404 30.7825 26.9425 30.7825Z" fill="white"/>
<path d="M37.4649 31.0343H37.0471C36.7392 31.0343 36.4894 30.6628 36.4894 30.205C36.4894 29.7473 36.7392 29.3758 37.0471 29.3758H37.4649C38.1553 29.3758 38.7371 28.6427 38.8431 27.6277L38.0278 22.0842C38.0278 21.5639 37.8344 20.9212 37.6704 20.6011C37.5075 20.2827 37.2722 20.0803 37.0034 20.0306L29.5735 18.6839C29.4664 18.664 29.3649 18.5993 29.2824 18.4965L22.5664 10.1028C22.1236 9.54891 21.5603 9.24375 20.9803 9.24375H10.4741C9.95546 9.24375 9.47917 9.63183 9.1992 10.282L6.05928 17.5876C5.98901 17.7551 5.87859 17.8779 5.75143 17.9342L1.95899 19.6342C1.3957 19.8863 1.04099 20.7271 1.13134 21.5929L1.66228 26.6496C1.81287 28.0809 2.62936 29.1208 3.60424 29.1208H4.2357C4.54356 29.1208 4.79342 29.4923 4.79342 29.95C4.79342 30.4078 4.54356 30.7793 4.2357 30.7793H3.60201C2.07388 30.7793 0.792254 29.1506 0.558015 26.905L0.0270739 21.8483C-0.148048 20.1699 0.542399 18.5363 1.6344 18.047L5.23052 16.435L8.26001 9.38638C8.74522 8.26026 9.57287 7.58691 10.4741 7.58691H20.9825C21.8236 7.58691 22.6412 8.02973 23.2848 8.8341L29.8736 17.0685L37.1394 18.3854C37.7105 18.4898 38.2147 18.9194 38.5605 19.601C38.9074 20.281 38.9865 20.9969 39.306 22.4466L39.9451 27.8831C39.7544 29.7108 38.7086 31.0343 37.4649 31.0343Z" fill="white"/>
<path d="M49.3962 31.3548H49.9532C51.6115 31.3548 53.0059 29.585 53.2602 27.141L52.4081 19.8711C51.982 17.9324 51.8766 16.9751 51.414 16.0658C50.953 15.1543 50.2808 14.5799 49.5193 14.4401L39.8315 12.6792L31.0464 1.66779C30.1883 0.592154 29.0981 0 27.9768 0H13.9656C12.7639 0 11.6603 0.900429 11.0134 2.40632L7.30183 12.0265C7.20009 14.0314 6.797 12.9676 7.30182 13.5298C7.47137 13.4544 7.42289 14.3981 7.51658 14.1741L12.2657 3.60393C12.6389 2.73455 13.274 2.21559 13.9656 2.21559H27.9738C28.7471 2.21559 29.4982 2.62366 30.0886 3.36441L39.0432 14.5887C39.1533 14.7262 39.2886 14.8127 39.4314 14.8393L49.3379 16.6402C49.6963 16.7067 50.0101 16.9773 50.2272 17.4031C50.4458 17.8312 50.7037 18.6906 50.7037 19.3864L51.7908 26.7994C51.6496 28.1567 50.8738 29.137 49.9532 29.137H49.3962C48.9857 29.137 48.6525 29.6338 48.6525 30.2459C48.6525 30.858 48.9857 31.3548 49.3962 31.3548Z" fill="white"/>
<path d="M23.7228 19.9097H10.7898C10.4786 19.9097 10.226 19.4226 10.226 18.8224C10.226 18.2222 10.4786 17.7351 10.7898 17.7351H23.7228C24.034 17.7351 24.2866 18.2222 24.2866 18.8224C24.2866 19.4226 24.034 19.9097 23.7228 19.9097Z" fill="white"/>
</svg>
